<svg width="162" height="33" viewBox="0 0 162 33" fill="none" xmlns="http://www.w3.org/2000/svg">
<path d="M1.386 6.999H23.034L12.21 30.462L1.386 6.999ZM12.21 27.558L21.153 8.22H3.3L12.21 27.558ZM27.0677 7.032H43.2377V8.253H28.2887V17.559H41.2907V18.78H28.2887V28.779H43.2377V30H27.0677V7.032ZM49.8455 7.032H66.0155V8.253H51.0665V17.559H64.0685V18.78H51.0665V28.779H66.0155V30H49.8455V7.032ZM94.0479 7.032H95.2689V21.222C95.2689 22.674 95.6319 24.016 96.3579 25.248C97.0839 26.48 98.0629 27.459 99.2949 28.185C100.527 28.911 101.869 29.274 103.321 29.274C104.773 29.274 106.115 28.911 107.347 28.185C108.579 27.459 109.558 26.48 110.284 25.248C111.01 24.016 111.373 22.674 111.373 21.222V7.032H112.594V21.222C112.594 22.894 112.176 24.445 111.34 25.875C110.504 27.283 109.371 28.405 107.941 29.241C106.533 30.077 104.993 30.495 103.321 30.495C101.649 30.495 100.098 30.077 98.6679 29.241C97.2599 28.405 96.1379 27.283 95.3019 25.875C94.4659 24.445 94.0479 22.894 94.0479 21.222V7.032ZM117.981 7.032L126.132 19.308L134.217 7.032H135.669L126.726 20.595V30H125.505V20.595L116.529 7.032H117.981ZM140.956 7.032H157.126V8.253H142.177V17.559H155.179V18.78H142.177V28.779H157.126V30H140.956V7.032Z" fill="#1780A1"/>
<path d="M1.386 6.999V5.999H-0.176602L0.477966 7.4179L1.386 6.999ZM23.034 6.999L23.942 7.4179L24.5966 5.999H23.034V6.999ZM12.21 30.462L11.302 30.8809L12.21 32.8492L13.118 30.8809L12.21 30.462ZM12.21 27.558L11.3018 27.9765L12.2083 29.944L13.1176 27.9777L12.21 27.558ZM21.153 8.22L22.0606 8.63974L22.7172 7.22H21.153V8.22ZM3.3 8.22V7.22H1.73821L2.39177 8.63847L3.3 8.22ZM1.386 7.999H23.034V5.999H1.386V7.999ZM22.126 6.5801L11.302 30.0431L13.118 30.8809L23.942 7.4179L22.126 6.5801ZM13.118 30.0431L2.29403 6.5801L0.477966 7.4179L11.302 30.8809L13.118 30.0431ZM13.1176 27.9777L22.0606 8.63974L20.2454 7.80025L11.3024 27.1383L13.1176 27.9777ZM21.153 7.22H3.3V9.22H21.153V7.22ZM2.39177 8.63847L11.3018 27.9765L13.1182 27.1395L4.20823 7.80153L2.39177 8.63847ZM27.0677 7.032V6.032H26.0677V7.032H27.0677ZM43.2377 7.032H44.2377V6.032H43.2377V7.032ZM43.2377 8.253V9.253H44.2377V8.253H43.2377ZM28.2887 8.253V7.253H27.2887V8.253H28.2887ZM28.2887 17.559H27.2887V18.559H28.2887V17.559ZM41.2907 17.559H42.2907V16.559H41.2907V17.559ZM41.2907 18.78V19.78H42.2907V18.78H41.2907ZM28.2887 18.78V17.78H27.2887V18.78H28.2887ZM28.2887 28.779H27.2887V29.779H28.2887V28.779ZM43.2377 28.779H44.2377V27.779H43.2377V28.779ZM43.2377 30V31H44.2377V30H43.2377ZM27.0677 30H26.0677V31H27.0677V30ZM27.0677 8.032H43.2377V6.032H27.0677V8.032ZM42.2377 7.032V8.253H44.2377V7.032H42.2377ZM43.2377 7.253H28.2887V9.253H43.2377V7.253ZM27.2887 8.253V17.559H29.2887V8.253H27.2887ZM28.2887 18.559H41.2907V16.559H28.2887V18.559ZM40.2907 17.559V18.78H42.2907V17.559H40.2907ZM41.2907 17.78H28.2887V19.78H41.2907V17.78ZM27.2887 18.78V28.779H29.2887V18.78H27.2887ZM28.2887 29.779H43.2377V27.779H28.2887V29.779ZM42.2377 28.779V30H44.2377V28.779H42.2377ZM43.2377 29H27.0677V31H43.2377V29ZM28.0677 30V7.032H26.0677V30H28.0677ZM49.8455 7.032V6.032H48.8455V7.032H49.8455ZM66.0155 7.032H67.0155V6.032H66.0155V7.032ZM66.0155 8.253V9.253H67.0155V8.253H66.0155ZM51.0665 8.253V7.253H50.0665V8.253H51.0665ZM51.0665 17.559H50.0665V18.559H51.0665V17.559ZM64.0685 17.559H65.0685V16.559H64.0685V17.559ZM64.0685 18.78V19.78H65.0685V18.78H64.0685ZM51.0665 18.78V17.78H50.0665V18.78H51.0665ZM51.0665 28.779H50.0665V29.779H51.0665V28.779ZM66.0155 28.779H67.0155V27.779H66.0155V28.779ZM66.0155 30V31H67.0155V30H66.0155ZM49.8455 30H48.8455V31H49.8455V30ZM49.8455 8.032H66.0155V6.032H49.8455V8.032ZM65.0155 7.032V8.253H67.0155V7.032H65.0155ZM66.0155 7.253H51.0665V9.253H66.0155V7.253ZM50.0665 8.253V17.559H52.0665V8.253H50.0665ZM51.0665 18.559H64.0685V16.559H51.0665V18.559ZM63.0685 17.559V18.78H65.0685V17.559H63.0685ZM64.0685 17.78H51.0665V19.78H64.0685V17.78ZM50.0665 18.78V28.779H52.0665V18.78H50.0665ZM51.0665 29.779H66.0155V27.779H51.0665V29.779ZM65.0155 28.779V30H67.0155V28.779H65.0155ZM66.0155 29H49.8455V31H66.0155V29ZM50.8455 30V7.032H48.8455V30H50.8455ZM94.0479 7.032V6.032H93.0479V7.032H94.0479ZM95.2689 7.032H96.2689V6.032H95.2689V7.032ZM96.3579 25.248L97.2195 24.7403L97.2195 24.7403L96.3579 25.248ZM99.2949 28.185L98.7872 29.0465L98.7872 29.0465L99.2949 28.185ZM107.347 28.185L106.839 27.3235L106.839 27.3235L107.347 28.185ZM110.284 25.248L109.422 24.7403L109.422 24.7403L110.284 25.248ZM111.373 7.032V6.032H110.373V7.032H111.373ZM112.594 7.032H113.594V6.032H112.594V7.032ZM111.34 25.875L112.2 26.3856L112.203 26.3797L111.34 25.875ZM107.941 29.241L107.436 28.3777L107.43 28.3811L107.941 29.241ZM98.6679 29.241L98.1574 30.1009L98.1632 30.1043L98.6679 29.241ZM95.3019 25.875L94.4386 26.3797L94.4421 26.3855L95.3019 25.875ZM94.0479 8.032H95.2689V6.032H94.0479V8.032ZM94.2689 7.032V21.222H96.2689V7.032H94.2689ZM94.2689 21.222C94.2689 22.8497 94.6783 24.3674 95.4964 25.7557L97.2195 24.7403C96.5856 23.6646 96.2689 22.4983 96.2689 21.222H94.2689ZM95.4964 25.7557C96.3085 27.1337 97.4092 28.2345 98.7872 29.0465L99.8026 27.3235C98.7167 26.6835 97.8594 25.8263 97.2195 24.7403L95.4964 25.7557ZM98.7872 29.0465C100.176 29.8646 101.693 30.274 103.321 30.274V28.274C102.045 28.274 100.878 27.9574 99.8026 27.3235L98.7872 29.0465ZM103.321 30.274C104.949 30.274 106.466 29.8646 107.855 29.0465L106.839 27.3235C105.764 27.9574 104.597 28.274 103.321 28.274V30.274ZM107.855 29.0465C109.233 28.2345 110.333 27.1337 111.145 25.7557L109.422 24.7403C108.782 25.8263 107.925 26.6835 106.839 27.3235L107.855 29.0465ZM111.145 25.7557C111.964 24.3674 112.373 22.8497 112.373 21.222H110.373C110.373 22.4983 110.056 23.6646 109.422 24.7403L111.145 25.7557ZM112.373 21.222V7.032H110.373V21.222H112.373ZM111.373 8.032H112.594V6.032H111.373V8.032ZM111.594 7.032V21.222H113.594V7.032H111.594ZM111.594 21.222C111.594 22.7184 111.222 24.0949 110.477 25.3703L112.203 26.3797C113.13 24.7951 113.594 23.0696 113.594 21.222H111.594ZM110.48 25.3645C109.732 26.6249 108.722 27.6262 107.436 28.3777L108.446 30.1043C110.02 29.1838 111.276 27.9411 112.2 26.3855L110.48 25.3645ZM107.43 28.3811C106.18 29.1234 104.817 29.495 103.321 29.495V31.495C105.169 31.495 106.886 31.0306 108.451 30.1009L107.43 28.3811ZM103.321 29.495C101.825 29.495 100.448 29.1233 99.1726 28.3777L98.1632 30.1043C99.7479 31.0307 101.473 31.495 103.321 31.495V29.495ZM99.1785 28.3811C97.9143 27.6305 96.9124 26.6286 96.1618 25.3645L94.4421 26.3855C95.3635 27.9374 96.6056 29.1795 98.1574 30.1009L99.1785 28.3811ZM96.1652 25.3703C95.4196 24.0949 95.0479 22.7184 95.0479 21.222H93.0479C93.0479 23.0696 93.5122 24.7951 94.4386 26.3797L96.1652 25.3703ZM95.0479 21.222V7.032H93.0479V21.222H95.0479ZM117.981 7.032L118.814 6.47885L118.517 6.032H117.981V7.032ZM126.132 19.308L125.299 19.8611L126.135 21.1209L126.967 19.858L126.132 19.308ZM134.217 7.032V6.032H133.678L133.382 6.48197L134.217 7.032ZM135.669 7.032L136.504 7.58247L137.526 6.032H135.669V7.032ZM126.726 20.595L125.891 20.0445L125.726 20.295V20.595H126.726ZM126.726 30V31H127.726V30H126.726ZM125.505 30H124.505V31H125.505V30ZM125.505 20.595H126.505V20.2941L126.339 20.0431L125.505 20.595ZM116.529 7.032V6.032H114.668L115.695 7.58389L116.529 7.032ZM117.148 7.58515L125.299 19.8611L126.965 18.7549L118.814 6.47885L117.148 7.58515ZM126.967 19.858L135.052 7.58203L133.382 6.48197L125.297 18.758L126.967 19.858ZM134.217 8.032H135.669V6.032H134.217V8.032ZM134.834 6.48152L125.891 20.0445L127.561 21.1455L136.504 7.58247L134.834 6.48152ZM125.726 20.595V30H127.726V20.595H125.726ZM126.726 29H125.505V31H126.726V29ZM126.505 30V20.595H124.505V30H126.505ZM126.339 20.0431L117.363 6.48011L115.695 7.58389L124.671 21.1469L126.339 20.0431ZM116.529 8.032H117.981V6.032H116.529V8.032ZM140.956 7.032V6.032H139.956V7.032H140.956ZM157.126 7.032H158.126V6.032H157.126V7.032ZM157.126 8.253V9.253H158.126V8.253H157.126ZM142.177 8.253V7.253H141.177V8.253H142.177ZM142.177 17.559H141.177V18.559H142.177V17.559ZM155.179 17.559H156.179V16.559H155.179V17.559ZM155.179 18.78V19.78H156.179V18.78H155.179ZM142.177 18.78V17.78H141.177V18.78H142.177ZM142.177 28.779H141.177V29.779H142.177V28.779ZM157.126 28.779H158.126V27.779H157.126V28.779ZM157.126 30V31H158.126V30H157.126ZM140.956 30H139.956V31H140.956V30ZM140.956 8.032H157.126V6.032H140.956V8.032ZM156.126 7.032V8.253H158.126V7.032H156.126ZM157.126 7.253H142.177V9.253H157.126V7.253ZM141.177 8.253V17.559H143.177V8.253H141.177ZM142.177 18.559H155.179V16.559H142.177V18.559ZM154.179 17.559V18.78H156.179V17.559H154.179ZM155.179 17.78H142.177V19.78H155.179V17.78ZM141.177 18.78V28.779H143.177V18.78H141.177ZM142.177 29.779H157.126V27.779H142.177V29.779ZM156.126 28.779V30H158.126V28.779H156.126ZM157.126 29H140.956V31H157.126V29ZM141.956 30V7.032H139.956V30H141.956Z" fill="#1780A1"/>
</svg>
