<svg xmlns="http://www.w3.org/2000/svg" width="375" viewBox="0 0 375 375" height="375" version="1.0"><defs><clipPath id="a"><path d="M 2.710938 0 L 372.460938 0 L 372.460938 369.75 L 2.710938 369.75 Z M 2.710938 0"/></clipPath></defs><g clip-path="url(#a)"><path fill="#FDFFFC" d="M 372.460938 184.875 C 372.460938 187.902344 372.386719 190.925781 372.238281 193.945312 C 372.089844 196.96875 371.867188 199.984375 371.570312 202.996094 C 371.273438 206.007812 370.90625 209.007812 370.460938 212 C 370.015625 214.996094 369.5 217.976562 368.910156 220.941406 C 368.320312 223.910156 367.65625 226.859375 366.921875 229.796875 C 366.1875 232.730469 365.378906 235.644531 364.5 238.542969 C 363.621094 241.4375 362.675781 244.308594 361.65625 247.15625 C 360.636719 250.007812 359.546875 252.828125 358.390625 255.625 C 357.230469 258.417969 356.003906 261.183594 354.710938 263.917969 C 353.417969 266.65625 352.058594 269.355469 350.632812 272.023438 C 349.207031 274.691406 347.714844 277.324219 346.160156 279.917969 C 344.605469 282.515625 342.984375 285.070312 341.304688 287.585938 C 339.625 290.101562 337.882812 292.574219 336.078125 295.003906 C 334.277344 297.433594 332.417969 299.820312 330.496094 302.160156 C 328.578125 304.496094 326.601562 306.789062 324.570312 309.03125 C 322.539062 311.269531 320.453125 313.460938 318.3125 315.601562 C 316.171875 317.742188 313.984375 319.828125 311.742188 321.859375 C 309.5 323.890625 307.210938 325.867188 304.871094 327.785156 C 302.53125 329.703125 300.148438 331.566406 297.714844 333.367188 C 295.285156 335.171875 292.8125 336.910156 290.296875 338.59375 C 287.78125 340.273438 285.226562 341.890625 282.632812 343.449219 C 280.035156 345.003906 277.40625 346.492188 274.734375 347.921875 C 272.066406 349.347656 269.367188 350.707031 266.632812 352 C 263.894531 353.292969 261.128906 354.519531 258.335938 355.675781 C 255.539062 356.835938 252.71875 357.921875 249.871094 358.941406 C 247.019531 359.960938 244.148438 360.910156 241.253906 361.789062 C 238.359375 362.667969 235.441406 363.472656 232.507812 364.210938 C 229.574219 364.945312 226.621094 365.605469 223.652344 366.199219 C 220.6875 366.789062 217.707031 367.304688 214.714844 367.75 C 211.71875 368.191406 208.71875 368.5625 205.707031 368.859375 C 202.695312 369.15625 199.679688 369.378906 196.65625 369.527344 C 193.636719 369.675781 190.613281 369.75 187.585938 369.75 C 184.5625 369.75 181.539062 369.675781 178.515625 369.527344 C 175.492188 369.378906 172.476562 369.15625 169.464844 368.859375 C 166.453125 368.5625 163.453125 368.191406 160.460938 367.75 C 157.46875 367.304688 154.488281 366.789062 151.519531 366.199219 C 148.550781 365.605469 145.601562 364.945312 142.664062 364.210938 C 139.730469 363.472656 136.816406 362.667969 133.921875 361.789062 C 131.023438 360.910156 128.152344 359.960938 125.304688 358.941406 C 122.457031 357.921875 119.632812 356.835938 116.839844 355.675781 C 114.042969 354.519531 111.277344 353.292969 108.542969 352 C 105.808594 350.707031 103.105469 349.347656 100.4375 347.921875 C 97.769531 346.492188 95.136719 345.003906 92.542969 343.449219 C 89.945312 341.890625 87.390625 340.273438 84.875 338.59375 C 82.359375 336.910156 79.886719 335.171875 77.457031 333.367188 C 75.027344 331.566406 72.640625 329.703125 70.304688 327.785156 C 67.964844 325.867188 65.675781 323.890625 63.433594 321.859375 C 61.191406 319.828125 59 317.742188 56.859375 315.601562 C 54.722656 313.460938 52.636719 311.269531 50.601562 309.03125 C 48.570312 306.789062 46.597656 304.496094 44.675781 302.160156 C 42.757812 299.820312 40.894531 297.433594 39.09375 295.003906 C 37.292969 292.574219 35.550781 290.101562 33.867188 287.585938 C 32.1875 285.070312 30.570312 282.515625 29.015625 279.917969 C 27.457031 277.324219 25.96875 274.691406 24.542969 272.023438 C 23.117188 269.355469 21.753906 266.65625 20.460938 263.917969 C 19.167969 261.183594 17.941406 258.417969 16.785156 255.625 C 15.625 252.828125 14.539062 250.007812 13.519531 247.15625 C 12.5 244.308594 11.550781 241.4375 10.671875 238.542969 C 9.792969 235.644531 8.988281 232.730469 8.253906 229.796875 C 7.515625 226.859375 6.855469 223.910156 6.265625 220.941406 C 5.675781 217.976562 5.15625 214.996094 4.710938 212 C 4.269531 209.007812 3.898438 206.007812 3.601562 202.996094 C 3.304688 199.984375 3.082031 196.96875 2.933594 193.945312 C 2.785156 190.925781 2.710938 187.902344 2.710938 184.875 C 2.710938 181.847656 2.785156 178.824219 2.933594 175.804688 C 3.082031 172.78125 3.304688 169.765625 3.601562 166.753906 C 3.898438 163.742188 4.269531 160.742188 4.710938 157.75 C 5.15625 154.753906 5.675781 151.773438 6.265625 148.808594 C 6.855469 145.839844 7.515625 142.890625 8.253906 139.953125 C 8.988281 137.019531 9.792969 134.105469 10.671875 131.207031 C 11.550781 128.3125 12.5 125.441406 13.519531 122.59375 C 14.539062 119.742188 15.625 116.921875 16.785156 114.125 C 17.941406 111.332031 19.167969 108.566406 20.460938 105.832031 C 21.753906 103.09375 23.117188 100.394531 24.542969 97.726562 C 25.96875 95.058594 27.457031 92.425781 29.015625 89.832031 C 30.570312 87.234375 32.1875 84.679688 33.867188 82.164062 C 35.550781 79.648438 37.292969 77.175781 39.09375 74.746094 C 40.894531 72.316406 42.757812 69.929688 44.675781 67.589844 C 46.597656 65.253906 48.570312 62.960938 50.601562 60.71875 C 52.636719 58.480469 54.722656 56.289062 56.859375 54.148438 C 59 52.007812 61.191406 49.921875 63.433594 47.890625 C 65.675781 45.859375 67.964844 43.882812 70.304688 41.964844 C 72.640625 40.046875 75.027344 38.183594 77.457031 36.382812 C 79.886719 34.578125 82.359375 32.839844 84.875 31.15625 C 87.390625 29.476562 89.945312 27.859375 92.542969 26.300781 C 95.136719 24.746094 97.769531 23.257812 100.4375 21.828125 C 103.105469 20.402344 105.808594 19.042969 108.542969 17.75 C 111.277344 16.457031 114.042969 15.230469 116.839844 14.074219 C 119.632812 12.914062 122.457031 11.828125 125.304688 10.808594 C 128.152344 9.789062 131.023438 8.839844 133.921875 7.960938 C 136.816406 7.082031 139.730469 6.277344 142.664062 5.539062 C 145.601562 4.804688 148.550781 4.144531 151.519531 3.550781 C 154.488281 2.960938 157.46875 2.445312 160.460938 2 C 163.453125 1.558594 166.453125 1.1875 169.464844 0.890625 C 172.476562 0.59375 175.492188 0.371094 178.515625 0.222656 C 181.539062 0.0742188 184.5625 0 187.585938 0 C 190.609375 0.00390625 193.632812 0.0859375 196.652344 0.238281 C 199.671875 0.394531 202.6875 0.621094 205.695312 0.921875 C 208.707031 1.222656 211.707031 1.597656 214.695312 2.046875 C 217.6875 2.496094 220.664062 3.015625 223.628906 3.609375 C 226.59375 4.203125 229.542969 4.871094 232.476562 5.609375 C 235.410156 6.347656 238.320312 7.15625 241.214844 8.039062 C 244.105469 8.921875 246.976562 9.871094 249.824219 10.894531 C 252.667969 11.914062 255.488281 13.007812 258.28125 14.167969 C 261.074219 15.328125 263.835938 16.554688 266.570312 17.847656 C 269.300781 19.144531 272 20.503906 274.667969 21.933594 C 277.332031 23.359375 279.960938 24.851562 282.554688 26.410156 C 285.148438 27.964844 287.699219 29.582031 290.214844 31.265625 C 292.726562 32.945312 295.199219 34.6875 297.628906 36.492188 C 300.054688 38.292969 302.4375 40.152344 304.777344 42.070312 C 307.113281 43.992188 309.402344 45.964844 311.640625 47.996094 C 313.882812 50.027344 316.070312 52.113281 318.210938 54.25 C 320.347656 56.390625 322.433594 58.578125 324.464844 60.820312 C 326.496094 63.058594 328.46875 65.347656 330.390625 67.6875 C 332.308594 70.023438 334.167969 72.40625 335.972656 74.835938 C 337.773438 77.261719 339.515625 79.734375 341.195312 82.246094 C 342.878906 84.761719 344.496094 87.3125 346.054688 89.90625 C 347.609375 92.5 349.101562 95.128906 350.527344 97.796875 C 351.957031 100.460938 353.316406 103.160156 354.613281 105.894531 C 355.90625 108.625 357.136719 111.386719 358.296875 114.179688 C 359.453125 116.972656 360.546875 119.792969 361.566406 122.640625 C 362.589844 125.484375 363.542969 128.355469 364.421875 131.246094 C 365.304688 134.140625 366.113281 137.054688 366.851562 139.984375 C 367.589844 142.917969 368.257812 145.867188 368.851562 148.832031 C 369.445312 151.796875 369.964844 154.773438 370.414062 157.765625 C 370.863281 160.757812 371.238281 163.757812 371.539062 166.765625 C 371.839844 169.773438 372.070312 172.789062 372.222656 175.808594 C 372.375 178.828125 372.457031 181.851562 372.460938 184.875 Z M 20.320312 184.875 C 20.320312 187.613281 20.386719 190.347656 20.519531 193.082031 C 20.65625 195.816406 20.855469 198.546875 21.125 201.269531 C 21.394531 203.996094 21.726562 206.710938 22.128906 209.417969 C 22.53125 212.125 23 214.824219 23.53125 217.507812 C 24.066406 220.191406 24.667969 222.863281 25.332031 225.519531 C 25.996094 228.171875 26.726562 230.8125 27.519531 233.429688 C 28.316406 236.050781 29.175781 238.648438 30.097656 241.226562 C 31.019531 243.804688 32.003906 246.355469 33.050781 248.886719 C 34.097656 251.414062 35.207031 253.917969 36.378906 256.390625 C 37.550781 258.867188 38.777344 261.308594 40.070312 263.722656 C 41.359375 266.140625 42.710938 268.519531 44.117188 270.867188 C 45.523438 273.214844 46.988281 275.527344 48.507812 277.804688 C 50.03125 280.082031 51.605469 282.316406 53.234375 284.515625 C 54.867188 286.714844 56.550781 288.871094 58.285156 290.988281 C 60.023438 293.105469 61.8125 295.175781 63.648438 297.207031 C 65.488281 299.234375 67.375 301.214844 69.308594 303.152344 C 71.246094 305.085938 73.226562 306.972656 75.257812 308.8125 C 77.285156 310.652344 79.355469 312.4375 81.472656 314.175781 C 83.589844 315.910156 85.746094 317.59375 87.945312 319.226562 C 90.144531 320.855469 92.382812 322.433594 94.65625 323.953125 C 96.933594 325.472656 99.246094 326.9375 101.59375 328.34375 C 103.941406 329.753906 106.324219 331.101562 108.738281 332.390625 C 111.152344 333.683594 113.597656 334.914062 116.070312 336.082031 C 118.546875 337.253906 121.046875 338.363281 123.574219 339.410156 C 126.105469 340.457031 128.660156 341.441406 131.234375 342.363281 C 133.8125 343.289062 136.410156 344.144531 139.03125 344.941406 C 141.652344 345.734375 144.289062 346.464844 146.945312 347.128906 C 149.597656 347.796875 152.269531 348.394531 154.953125 348.929688 C 157.640625 349.460938 160.335938 349.929688 163.042969 350.332031 C 165.75 350.734375 168.46875 351.070312 171.191406 351.335938 C 173.914062 351.605469 176.644531 351.808594 179.378906 351.941406 C 182.113281 352.074219 184.847656 352.144531 187.585938 352.144531 C 190.324219 352.144531 193.058594 352.074219 195.792969 351.941406 C 198.527344 351.808594 201.257812 351.605469 203.980469 351.335938 C 206.707031 351.070312 209.421875 350.734375 212.128906 350.332031 C 214.839844 349.929688 217.535156 349.460938 220.21875 348.929688 C 222.902344 348.394531 225.574219 347.796875 228.230469 347.128906 C 230.886719 346.464844 233.523438 345.734375 236.140625 344.941406 C 238.761719 344.144531 241.359375 343.289062 243.9375 342.363281 C 246.515625 341.441406 249.066406 340.457031 251.597656 339.410156 C 254.125 338.363281 256.628906 337.253906 259.101562 336.082031 C 261.578125 334.914062 264.023438 333.683594 266.4375 332.390625 C 268.851562 331.101562 271.230469 329.753906 273.578125 328.34375 C 275.925781 326.9375 278.238281 325.472656 280.515625 323.953125 C 282.792969 322.433594 285.03125 320.855469 287.226562 319.226562 C 289.425781 317.59375 291.585938 315.910156 293.699219 314.175781 C 295.816406 312.4375 297.886719 310.652344 299.917969 308.8125 C 301.945312 306.972656 303.925781 305.085938 305.863281 303.152344 C 307.796875 301.214844 309.6875 299.234375 311.523438 297.207031 C 313.363281 295.175781 315.148438 293.105469 316.886719 290.988281 C 318.625 288.871094 320.308594 286.714844 321.9375 284.515625 C 323.566406 282.316406 325.144531 280.082031 326.664062 277.804688 C 328.1875 275.527344 329.648438 273.214844 331.058594 270.867188 C 332.464844 268.519531 333.8125 266.140625 335.105469 263.722656 C 336.394531 261.308594 337.625 258.867188 338.796875 256.390625 C 339.964844 253.917969 341.074219 251.414062 342.121094 248.886719 C 343.167969 246.355469 344.15625 243.804688 345.078125 241.226562 C 346 238.648438 346.859375 236.050781 347.652344 233.429688 C 348.445312 230.8125 349.175781 228.171875 349.84375 225.519531 C 350.507812 222.863281 351.105469 220.191406 351.640625 217.507812 C 352.175781 214.824219 352.640625 212.125 353.042969 209.417969 C 353.445312 206.710938 353.78125 203.996094 354.050781 201.269531 C 354.316406 198.546875 354.519531 195.816406 354.652344 193.082031 C 354.789062 190.347656 354.855469 187.613281 354.855469 184.875 C 354.855469 182.136719 354.789062 179.402344 354.652344 176.667969 C 354.519531 173.933594 354.316406 171.203125 354.050781 168.480469 C 353.78125 165.753906 353.445312 163.039062 353.042969 160.332031 C 352.640625 157.625 352.175781 154.925781 351.640625 152.242188 C 351.105469 149.558594 350.507812 146.886719 349.84375 144.230469 C 349.175781 141.578125 348.445312 138.9375 347.652344 136.320312 C 346.859375 133.699219 346 131.101562 345.078125 128.523438 C 344.15625 125.945312 343.167969 123.394531 342.121094 120.863281 C 341.074219 118.335938 339.964844 115.832031 338.796875 113.359375 C 337.625 110.882812 336.394531 108.441406 335.105469 106.027344 C 333.8125 103.609375 332.464844 101.230469 331.058594 98.882812 C 329.648438 96.535156 328.1875 94.222656 326.664062 91.945312 C 325.144531 89.667969 323.566406 87.433594 321.9375 85.234375 C 320.308594 83.035156 318.625 80.878906 316.886719 78.761719 C 315.148438 76.644531 313.363281 74.574219 311.523438 72.542969 C 309.6875 70.515625 307.796875 68.535156 305.863281 66.597656 C 303.925781 64.664062 301.945312 62.777344 299.917969 60.9375 C 297.886719 59.097656 295.816406 57.3125 293.699219 55.574219 C 291.585938 53.839844 289.425781 52.15625 287.226562 50.523438 C 285.03125 48.894531 282.792969 47.316406 280.515625 45.796875 C 278.238281 44.277344 275.925781 42.8125 273.578125 41.40625 C 271.230469 39.996094 268.851562 38.648438 266.4375 37.359375 C 264.023438 36.066406 261.578125 34.835938 259.101562 33.667969 C 256.628906 32.496094 254.125 31.386719 251.597656 30.339844 C 249.066406 29.292969 246.515625 28.308594 243.9375 27.386719 C 241.359375 26.460938 238.761719 25.605469 236.140625 24.808594 C 233.523438 24.015625 230.886719 23.285156 228.230469 22.621094 C 225.574219 21.953125 222.902344 21.355469 220.21875 20.820312 C 217.535156 20.285156 214.839844 19.820312 212.128906 19.417969 C 209.421875 19.015625 206.707031 18.679688 203.980469 18.414062 C 201.257812 18.144531 198.527344 17.941406 195.792969 17.808594 C 193.058594 17.675781 190.324219 17.605469 187.585938 17.605469 C 184.851562 17.613281 182.117188 17.683594 179.382812 17.824219 C 176.652344 17.960938 173.921875 18.167969 171.203125 18.441406 C 168.480469 18.714844 165.765625 19.050781 163.058594 19.457031 C 160.351562 19.863281 157.660156 20.335938 154.976562 20.871094 C 152.292969 21.410156 149.625 22.011719 146.972656 22.679688 C 144.320312 23.347656 141.683594 24.082031 139.066406 24.878906 C 136.449219 25.675781 133.851562 26.535156 131.277344 27.460938 C 128.703125 28.386719 126.152344 29.371094 123.625 30.421875 C 121.097656 31.472656 118.597656 32.582031 116.125 33.753906 C 113.652344 34.925781 111.210938 36.15625 108.796875 37.449219 C 106.386719 38.738281 104.007812 40.089844 101.660156 41.496094 C 99.316406 42.90625 97.003906 44.371094 94.730469 45.890625 C 92.457031 47.414062 90.21875 48.988281 88.023438 50.617188 C 85.828125 52.25 83.671875 53.933594 81.554688 55.667969 C 79.441406 57.40625 77.371094 59.191406 75.34375 61.03125 C 73.316406 62.867188 71.335938 64.753906 69.402344 66.6875 C 67.464844 68.625 65.578125 70.605469 63.742188 72.632812 C 61.902344 74.660156 60.117188 76.730469 58.382812 78.84375 C 56.644531 80.957031 54.960938 83.113281 53.332031 85.3125 C 51.699219 87.507812 50.125 89.746094 48.601562 92.019531 C 47.082031 94.292969 45.617188 96.601562 44.210938 98.949219 C 42.800781 101.296875 41.453125 103.675781 40.160156 106.085938 C 38.867188 108.5 37.636719 110.941406 36.464844 113.414062 C 35.292969 115.886719 34.183594 118.386719 33.132812 120.910156 C 32.085938 123.4375 31.097656 125.988281 30.171875 128.566406 C 29.25 131.140625 28.386719 133.738281 27.589844 136.355469 C 26.792969 138.972656 26.058594 141.605469 25.390625 144.261719 C 24.722656 146.914062 24.121094 149.582031 23.582031 152.265625 C 23.046875 154.945312 22.574219 157.640625 22.167969 160.347656 C 21.765625 163.054688 21.425781 165.765625 21.152344 168.488281 C 20.878906 171.210938 20.675781 173.941406 20.535156 176.671875 C 20.394531 179.40625 20.324219 182.140625 20.320312 184.875 Z M 20.320312 184.875"/></g><path fill="#FDFFFC" d="M 269.328125 206.882812 C 269.328125 207.65625 269.269531 208.425781 269.152344 209.191406 C 269.035156 209.957031 268.863281 210.710938 268.632812 211.449219 C 268.402344 212.1875 268.117188 212.90625 267.777344 213.601562 C 267.441406 214.300781 267.050781 214.964844 266.613281 215.605469 C 266.175781 216.242188 265.691406 216.84375 265.160156 217.40625 C 264.632812 217.972656 264.0625 218.492188 263.453125 218.972656 C 262.847656 219.453125 262.207031 219.882812 261.535156 220.265625 C 260.859375 220.648438 260.164062 220.976562 259.441406 221.253906 C 258.71875 221.53125 257.976562 221.753906 257.222656 221.917969 C 256.464844 222.085938 255.699219 222.191406 254.929688 222.242188 C 254.15625 222.292969 253.382812 222.285156 252.613281 222.222656 C 251.839844 222.15625 251.078125 222.03125 250.328125 221.851562 C 249.574219 221.671875 248.839844 221.433594 248.121094 221.144531 C 247.40625 220.851562 246.714844 220.507812 246.046875 220.113281 C 245.382812 219.71875 244.75 219.273438 244.152344 218.78125 C 243.554688 218.292969 242.996094 217.757812 242.476562 217.183594 L 187.585938 155.910156 L 133.003906 217.050781 C 132.328125 217.804688 131.585938 218.488281 130.777344 219.097656 C 129.96875 219.703125 129.109375 220.226562 128.195312 220.667969 C 127.285156 221.105469 126.339844 221.449219 125.359375 221.703125 C 124.378906 221.953125 123.382812 222.109375 122.371094 222.164062 C 121.359375 222.222656 120.355469 222.179688 119.351562 222.035156 C 118.351562 221.894531 117.371094 221.65625 116.417969 221.320312 C 115.460938 220.988281 114.546875 220.5625 113.675781 220.046875 C 112.804688 219.53125 111.992188 218.9375 111.238281 218.261719 C 110.484375 217.585938 109.800781 216.84375 109.195312 216.035156 C 108.585938 215.226562 108.0625 214.367188 107.625 213.453125 C 107.183594 212.542969 106.839844 211.597656 106.585938 210.617188 C 106.335938 209.636719 106.179688 208.640625 106.125 207.628906 C 106.066406 206.621094 106.109375 205.613281 106.253906 204.609375 C 106.394531 203.609375 106.632812 202.628906 106.96875 201.675781 C 107.304688 200.71875 107.726562 199.804688 108.242188 198.933594 C 108.757812 198.0625 109.351562 197.25 110.027344 196.496094 L 176.054688 122.546875 C 176.78125 121.738281 177.585938 121.015625 178.464844 120.375 C 179.34375 119.734375 180.28125 119.191406 181.273438 118.75 C 182.269531 118.304688 183.296875 117.96875 184.359375 117.742188 C 185.421875 117.515625 186.5 117.398438 187.585938 117.394531 C 188.667969 117.398438 189.738281 117.515625 190.792969 117.742188 C 191.851562 117.972656 192.871094 118.308594 193.855469 118.753906 C 194.84375 119.195312 195.773438 119.738281 196.644531 120.375 C 197.515625 121.015625 198.3125 121.738281 199.03125 122.546875 L 265.410156 196.496094 C 266.691406 197.921875 267.671875 199.527344 268.347656 201.320312 C 269.023438 203.113281 269.351562 204.96875 269.328125 206.882812 Z M 269.328125 206.882812"/></svg>