<svg xmlns="http://www.w3.org/2000/svg" width="375" viewBox="0 0 375 375" height="375" version="1.0"><defs><clipPath id="a"><path d="M 2.710938 5.421875 L 372.460938 5.421875 L 372.460938 375 L 2.710938 375 Z M 2.710938 5.421875"/></clipPath></defs><g clip-path="url(#a)"><path fill="#1780A1" d="M 372.460938 190.296875 C 372.460938 193.324219 372.386719 196.347656 372.238281 199.371094 C 372.089844 202.390625 371.867188 205.410156 371.570312 208.417969 C 371.273438 211.429688 370.90625 214.433594 370.460938 217.425781 C 370.015625 220.417969 369.5 223.398438 368.910156 226.367188 C 368.320312 229.332031 367.65625 232.285156 366.921875 235.21875 C 366.1875 238.15625 365.378906 241.070312 364.5 243.964844 C 363.621094 246.859375 362.675781 249.730469 361.65625 252.582031 C 360.636719 255.429688 359.546875 258.25 358.390625 261.046875 C 357.230469 263.84375 356.003906 266.609375 354.710938 269.34375 C 353.417969 272.078125 352.058594 274.78125 350.632812 277.449219 C 349.207031 280.117188 347.714844 282.75 346.160156 285.34375 C 344.605469 287.9375 342.984375 290.492188 341.304688 293.007812 C 339.625 295.523438 337.882812 298 336.078125 300.429688 C 334.277344 302.859375 332.417969 305.242188 330.496094 307.582031 C 328.578125 309.921875 326.601562 312.210938 324.570312 314.453125 C 322.539062 316.695312 320.453125 318.886719 318.3125 321.023438 C 316.171875 323.164062 313.984375 325.25 311.742188 327.28125 C 309.5 329.3125 307.210938 331.289062 304.871094 333.207031 C 302.53125 335.128906 300.148438 336.988281 297.714844 338.792969 C 295.285156 340.59375 292.8125 342.335938 290.296875 344.015625 C 287.78125 345.699219 285.226562 347.316406 282.632812 348.871094 C 280.035156 350.425781 277.40625 351.917969 274.734375 353.34375 C 272.066406 354.769531 269.367188 356.128906 266.632812 357.421875 C 263.894531 358.71875 261.128906 359.941406 258.335938 361.101562 C 255.539062 362.257812 252.71875 363.347656 249.871094 364.367188 C 247.019531 365.386719 244.148438 366.335938 241.253906 367.210938 C 238.359375 368.089844 235.441406 368.898438 232.507812 369.632812 C 229.574219 370.367188 226.621094 371.03125 223.652344 371.621094 C 220.6875 372.210938 217.707031 372.730469 214.714844 373.171875 C 211.71875 373.617188 208.71875 373.988281 205.707031 374.285156 C 202.695312 374.578125 199.679688 374.800781 196.65625 374.949219 C 193.636719 375.097656 190.613281 375.171875 187.585938 375.171875 C 184.5625 375.171875 181.539062 375.097656 178.515625 374.949219 C 175.492188 374.800781 172.476562 374.578125 169.464844 374.285156 C 166.453125 373.988281 163.453125 373.617188 160.460938 373.171875 C 157.46875 372.730469 154.488281 372.210938 151.519531 371.621094 C 148.550781 371.03125 145.601562 370.367188 142.664062 369.632812 C 139.730469 368.898438 136.816406 368.089844 133.921875 367.210938 C 131.023438 366.335938 128.152344 365.386719 125.304688 364.367188 C 122.457031 363.347656 119.632812 362.257812 116.839844 361.101562 C 114.042969 359.941406 111.277344 358.71875 108.542969 357.421875 C 105.808594 356.128906 103.105469 354.769531 100.4375 353.34375 C 97.769531 351.917969 95.136719 350.425781 92.542969 348.871094 C 89.945312 347.316406 87.390625 345.699219 84.875 344.015625 C 82.359375 342.335938 79.886719 340.59375 77.457031 338.792969 C 75.027344 336.988281 72.640625 335.128906 70.304688 333.207031 C 67.964844 331.289062 65.675781 329.3125 63.433594 327.28125 C 61.191406 325.25 59 323.164062 56.859375 321.023438 C 54.722656 318.886719 52.636719 316.695312 50.601562 314.453125 C 48.570312 312.210938 46.597656 309.921875 44.675781 307.582031 C 42.757812 305.242188 40.894531 302.859375 39.09375 300.429688 C 37.292969 298 35.550781 295.523438 33.867188 293.007812 C 32.1875 290.492188 30.570312 287.9375 29.015625 285.34375 C 27.457031 282.75 25.96875 280.117188 24.542969 277.449219 C 23.117188 274.78125 21.753906 272.078125 20.460938 269.34375 C 19.167969 266.609375 17.941406 263.84375 16.785156 261.046875 C 15.625 258.25 14.539062 255.429688 13.519531 252.582031 C 12.5 249.730469 11.550781 246.859375 10.671875 243.964844 C 9.792969 241.070312 8.988281 238.15625 8.253906 235.21875 C 7.515625 232.285156 6.855469 229.332031 6.265625 226.367188 C 5.675781 223.398438 5.15625 220.417969 4.710938 217.425781 C 4.269531 214.433594 3.898438 211.429688 3.601562 208.417969 C 3.304688 205.410156 3.082031 202.390625 2.933594 199.371094 C 2.785156 196.347656 2.710938 193.324219 2.710938 190.296875 C 2.710938 187.273438 2.785156 184.25 2.933594 181.226562 C 3.082031 178.207031 3.304688 175.1875 3.601562 172.175781 C 3.898438 169.167969 4.269531 166.164062 4.710938 163.171875 C 5.15625 160.179688 5.675781 157.199219 6.265625 154.230469 C 6.855469 151.265625 7.515625 148.3125 8.253906 145.378906 C 8.988281 142.441406 9.792969 139.527344 10.671875 136.632812 C 11.550781 133.738281 12.5 130.863281 13.519531 128.015625 C 14.539062 125.167969 15.625 122.34375 16.785156 119.550781 C 17.941406 116.753906 19.167969 113.988281 20.460938 111.253906 C 21.753906 108.519531 23.117188 105.816406 24.542969 103.148438 C 25.96875 100.480469 27.457031 97.847656 29.015625 95.253906 C 30.570312 92.660156 32.1875 90.101562 33.867188 87.585938 C 35.550781 85.070312 37.292969 82.597656 39.09375 80.167969 C 40.894531 77.738281 42.757812 75.355469 44.675781 73.015625 C 46.597656 70.675781 48.570312 68.386719 50.601562 66.144531 C 52.636719 63.902344 54.722656 61.710938 56.859375 59.570312 C 59 57.433594 61.191406 55.347656 63.433594 53.316406 C 65.675781 51.285156 67.964844 49.308594 70.304688 47.386719 C 72.640625 45.46875 75.027344 43.609375 77.457031 41.804688 C 79.886719 40.003906 82.359375 38.261719 84.875 36.582031 C 87.390625 34.898438 89.945312 33.28125 92.542969 31.726562 C 95.136719 30.171875 97.769531 28.679688 100.4375 27.253906 C 103.105469 25.828125 105.808594 24.46875 108.542969 23.171875 C 111.277344 21.878906 114.042969 20.652344 116.839844 19.496094 C 119.632812 18.339844 122.457031 17.25 125.304688 16.230469 C 128.152344 15.210938 131.023438 14.261719 133.921875 13.382812 C 136.816406 12.507812 139.730469 11.699219 142.664062 10.964844 C 145.601562 10.230469 148.550781 9.566406 151.519531 8.976562 C 154.488281 8.386719 157.46875 7.867188 160.460938 7.425781 C 163.453125 6.980469 166.453125 6.609375 169.464844 6.3125 C 172.476562 6.015625 175.492188 5.792969 178.515625 5.644531 C 181.539062 5.496094 184.5625 5.421875 187.585938 5.421875 C 190.609375 5.429688 193.632812 5.507812 196.652344 5.664062 C 199.671875 5.816406 202.6875 6.042969 205.695312 6.34375 C 208.707031 6.648438 211.707031 7.023438 214.695312 7.46875 C 217.6875 7.917969 220.664062 8.441406 223.628906 9.035156 C 226.59375 9.628906 229.542969 10.292969 232.476562 11.03125 C 235.410156 11.773438 238.320312 12.582031 241.214844 13.464844 C 244.105469 14.34375 246.976562 15.296875 249.824219 16.316406 C 252.667969 17.339844 255.488281 18.429688 258.28125 19.589844 C 261.074219 20.75 263.835938 21.976562 266.570312 23.273438 C 269.300781 24.566406 272 25.929688 274.667969 27.355469 C 277.332031 28.785156 279.960938 30.277344 282.554688 31.832031 C 285.148438 33.386719 287.699219 35.007812 290.214844 36.6875 C 292.726562 38.371094 295.199219 40.113281 297.628906 41.914062 C 300.054688 43.714844 302.4375 45.578125 304.777344 47.496094 C 307.113281 49.414062 309.402344 51.390625 311.640625 53.421875 C 313.882812 55.453125 316.070312 57.535156 318.210938 59.675781 C 320.347656 61.8125 322.433594 64.003906 324.464844 66.242188 C 326.496094 68.484375 328.46875 70.773438 330.390625 73.109375 C 332.308594 75.445312 334.167969 77.828125 335.972656 80.257812 C 337.773438 82.6875 339.515625 85.15625 341.195312 87.671875 C 342.878906 90.183594 344.496094 92.738281 346.054688 95.332031 C 347.609375 97.921875 349.101562 100.550781 350.527344 103.21875 C 351.957031 105.882812 353.316406 108.582031 354.613281 111.316406 C 355.90625 114.050781 357.136719 116.8125 358.296875 119.605469 C 359.453125 122.398438 360.546875 125.214844 361.566406 128.0625 C 362.589844 130.910156 363.542969 133.777344 364.421875 136.671875 C 365.304688 139.5625 366.113281 142.476562 366.851562 145.410156 C 367.589844 148.339844 368.257812 151.289062 368.851562 154.253906 C 369.445312 157.21875 369.964844 160.199219 370.414062 163.1875 C 370.863281 166.179688 371.238281 169.179688 371.539062 172.1875 C 371.839844 175.199219 372.070312 178.210938 372.222656 181.230469 C 372.375 184.253906 372.457031 187.273438 372.460938 190.296875 Z M 20.320312 190.296875 C 20.320312 193.035156 20.386719 195.773438 20.519531 198.507812 C 20.65625 201.238281 20.855469 203.96875 21.125 206.695312 C 21.394531 209.417969 21.726562 212.132812 22.128906 214.84375 C 22.53125 217.550781 23 220.246094 23.53125 222.929688 C 24.066406 225.617188 24.667969 228.285156 25.332031 230.941406 C 25.996094 233.597656 26.726562 236.234375 27.519531 238.855469 C 28.316406 241.472656 29.175781 244.070312 30.097656 246.648438 C 31.019531 249.226562 32.003906 251.78125 33.050781 254.308594 C 34.097656 256.839844 35.207031 259.339844 36.378906 261.816406 C 37.550781 264.289062 38.777344 266.734375 40.070312 269.148438 C 41.359375 271.5625 42.710938 273.945312 44.117188 276.292969 C 45.523438 278.640625 46.988281 280.953125 48.507812 283.226562 C 50.03125 285.503906 51.605469 287.742188 53.234375 289.941406 C 54.867188 292.136719 56.550781 294.296875 58.285156 296.414062 C 60.023438 298.527344 61.8125 300.601562 63.648438 302.628906 C 65.488281 304.65625 67.375 306.640625 69.308594 308.574219 C 71.246094 310.511719 73.226562 312.398438 75.257812 314.234375 C 77.285156 316.074219 79.355469 317.863281 81.472656 319.597656 C 83.589844 321.335938 85.746094 323.019531 87.945312 324.648438 C 90.144531 326.28125 92.382812 327.855469 94.65625 329.375 C 96.933594 330.898438 99.246094 332.363281 101.59375 333.769531 C 103.941406 335.175781 106.324219 336.523438 108.738281 337.816406 C 111.152344 339.105469 113.597656 340.335938 116.070312 341.507812 C 118.546875 342.675781 121.046875 343.785156 123.574219 344.832031 C 126.105469 345.882812 128.660156 346.867188 131.234375 347.789062 C 133.8125 348.710938 136.410156 349.570312 139.03125 350.363281 C 141.652344 351.160156 144.289062 351.886719 146.945312 352.554688 C 149.597656 353.21875 152.269531 353.816406 154.953125 354.351562 C 157.640625 354.886719 160.335938 355.355469 163.042969 355.757812 C 165.75 356.15625 168.46875 356.492188 171.191406 356.761719 C 173.914062 357.027344 176.644531 357.230469 179.378906 357.363281 C 182.113281 357.5 184.847656 357.566406 187.585938 357.566406 C 190.324219 357.566406 193.058594 357.5 195.792969 357.363281 C 198.527344 357.230469 201.257812 357.027344 203.980469 356.761719 C 206.707031 356.492188 209.421875 356.15625 212.128906 355.757812 C 214.839844 355.355469 217.535156 354.886719 220.21875 354.351562 C 222.902344 353.816406 225.574219 353.21875 228.230469 352.554688 C 230.886719 351.886719 233.523438 351.160156 236.140625 350.363281 C 238.761719 349.570312 241.359375 348.710938 243.9375 347.789062 C 246.515625 346.867188 249.066406 345.882812 251.597656 344.832031 C 254.125 343.785156 256.628906 342.675781 259.101562 341.507812 C 261.578125 340.335938 264.023438 339.105469 266.4375 337.816406 C 268.851562 336.523438 271.230469 335.175781 273.578125 333.769531 C 275.925781 332.363281 278.238281 330.898438 280.515625 329.375 C 282.792969 327.855469 285.03125 326.28125 287.226562 324.648438 C 289.425781 323.019531 291.585938 321.335938 293.699219 319.597656 C 295.816406 317.863281 297.886719 316.074219 299.917969 314.234375 C 301.945312 312.398438 303.925781 310.511719 305.863281 308.574219 C 307.796875 306.640625 309.6875 304.65625 311.523438 302.628906 C 313.363281 300.601562 315.148438 298.527344 316.886719 296.414062 C 318.625 294.296875 320.308594 292.136719 321.9375 289.941406 C 323.566406 287.742188 325.144531 285.503906 326.664062 283.226562 C 328.1875 280.953125 329.648438 278.640625 331.058594 276.292969 C 332.464844 273.945312 333.8125 271.5625 335.105469 269.148438 C 336.394531 266.734375 337.625 264.289062 338.796875 261.816406 C 339.964844 259.339844 341.074219 256.839844 342.121094 254.308594 C 343.167969 251.78125 344.15625 249.226562 345.078125 246.648438 C 346 244.070312 346.859375 241.472656 347.652344 238.855469 C 348.445312 236.234375 349.175781 233.597656 349.84375 230.941406 C 350.507812 228.285156 351.105469 225.617188 351.640625 222.929688 C 352.175781 220.246094 352.640625 217.550781 353.042969 214.84375 C 353.445312 212.132812 353.78125 209.417969 354.050781 206.695312 C 354.316406 203.96875 354.519531 201.238281 354.652344 198.507812 C 354.789062 195.773438 354.855469 193.035156 354.855469 190.296875 C 354.855469 187.5625 354.789062 184.824219 354.652344 182.089844 C 354.519531 179.355469 354.316406 176.628906 354.050781 173.902344 C 353.78125 171.179688 353.445312 168.464844 353.042969 165.753906 C 352.640625 163.046875 352.175781 160.351562 351.640625 157.667969 C 351.105469 154.980469 350.507812 152.3125 349.84375 149.65625 C 349.175781 147 348.445312 144.363281 347.652344 141.742188 C 346.859375 139.125 346 136.523438 345.078125 133.949219 C 344.15625 131.371094 343.167969 128.816406 342.121094 126.289062 C 341.074219 123.757812 339.964844 121.257812 338.796875 118.78125 C 337.625 116.308594 336.394531 113.863281 335.105469 111.449219 C 333.8125 109.035156 332.464844 106.652344 331.058594 104.304688 C 329.648438 101.957031 328.1875 99.644531 326.664062 97.371094 C 325.144531 95.09375 323.566406 92.855469 321.9375 90.65625 C 320.308594 88.457031 318.625 86.300781 316.886719 84.183594 C 315.148438 82.070312 313.363281 79.996094 311.523438 77.96875 C 309.6875 75.941406 307.796875 73.957031 305.863281 72.023438 C 303.925781 70.085938 301.945312 68.199219 299.917969 66.359375 C 297.886719 64.523438 295.816406 62.734375 293.699219 61 C 291.585938 59.261719 289.425781 57.578125 287.226562 55.949219 C 285.03125 54.316406 282.792969 52.742188 280.515625 51.21875 C 278.238281 49.699219 275.925781 48.234375 273.578125 46.828125 C 271.230469 45.421875 268.851562 44.070312 266.4375 42.78125 C 264.023438 41.492188 261.578125 40.261719 259.101562 39.089844 C 256.628906 37.917969 254.125 36.8125 251.597656 35.761719 C 249.066406 34.714844 246.515625 33.730469 243.9375 32.808594 C 241.359375 31.886719 238.761719 31.027344 236.140625 30.234375 C 233.523438 29.4375 230.886719 28.707031 228.230469 28.042969 C 225.574219 27.378906 222.902344 26.777344 220.21875 26.246094 C 217.535156 25.710938 214.839844 25.242188 212.128906 24.839844 C 209.421875 24.4375 206.707031 24.105469 203.980469 23.835938 C 201.257812 23.566406 198.527344 23.367188 195.792969 23.230469 C 193.058594 23.097656 190.324219 23.03125 187.585938 23.03125 C 184.851562 23.035156 182.117188 23.109375 179.382812 23.246094 C 176.652344 23.386719 173.921875 23.589844 171.203125 23.863281 C 168.480469 24.136719 165.765625 24.476562 163.058594 24.882812 C 160.351562 25.285156 157.660156 25.757812 154.976562 26.296875 C 152.292969 26.832031 149.625 27.4375 146.972656 28.105469 C 144.320312 28.773438 141.683594 29.503906 139.066406 30.300781 C 136.449219 31.097656 133.851562 31.960938 131.277344 32.882812 C 128.703125 33.808594 126.152344 34.796875 123.625 35.84375 C 121.097656 36.894531 118.597656 38.003906 116.125 39.175781 C 113.652344 40.347656 111.210938 41.582031 108.796875 42.871094 C 106.386719 44.164062 104.007812 45.511719 101.660156 46.921875 C 99.316406 48.328125 97.003906 49.792969 94.730469 51.316406 C 92.457031 52.835938 90.21875 54.410156 88.023438 56.042969 C 85.828125 57.671875 83.671875 59.355469 81.554688 61.09375 C 79.441406 62.828125 77.371094 64.617188 75.34375 66.453125 C 73.316406 68.292969 71.335938 70.175781 69.402344 72.113281 C 67.464844 74.046875 65.578125 76.027344 63.742188 78.054688 C 61.902344 80.082031 60.117188 82.152344 58.382812 84.265625 C 56.644531 86.382812 54.960938 88.539062 53.332031 90.734375 C 51.699219 92.933594 50.125 95.167969 48.601562 97.441406 C 47.082031 99.714844 45.617188 102.027344 44.210938 104.371094 C 42.800781 106.71875 41.453125 109.097656 40.160156 111.511719 C 38.867188 113.921875 37.636719 116.363281 36.464844 118.835938 C 35.292969 121.308594 34.183594 123.808594 33.132812 126.335938 C 32.085938 128.863281 31.097656 131.414062 30.171875 133.988281 C 29.25 136.5625 28.386719 139.160156 27.589844 141.777344 C 26.792969 144.394531 26.058594 147.03125 25.390625 149.683594 C 24.722656 152.335938 24.121094 155.003906 23.582031 157.6875 C 23.046875 160.371094 22.574219 163.066406 22.167969 165.769531 C 21.765625 168.476562 21.425781 171.191406 21.152344 173.914062 C 20.878906 176.636719 20.675781 179.363281 20.535156 182.09375 C 20.394531 184.828125 20.324219 187.5625 20.320312 190.296875 Z M 20.320312 190.296875"/></g><path fill="#1780A1" d="M 269.328125 212.308594 C 269.328125 213.082031 269.269531 213.851562 269.152344 214.617188 C 269.035156 215.382812 268.863281 216.132812 268.632812 216.875 C 268.402344 217.613281 268.117188 218.328125 267.777344 219.027344 C 267.441406 219.722656 267.050781 220.390625 266.613281 221.027344 C 266.175781 221.664062 265.691406 222.265625 265.160156 222.832031 C 264.632812 223.394531 264.0625 223.917969 263.453125 224.394531 C 262.847656 224.875 262.207031 225.304688 261.535156 225.6875 C 260.859375 226.070312 260.164062 226.402344 259.441406 226.679688 C 258.71875 226.957031 257.976562 227.175781 257.222656 227.34375 C 256.464844 227.507812 255.699219 227.617188 254.929688 227.667969 C 254.15625 227.71875 253.382812 227.710938 252.613281 227.644531 C 251.839844 227.578125 251.078125 227.457031 250.328125 227.273438 C 249.574219 227.09375 248.839844 226.859375 248.121094 226.566406 C 247.40625 226.273438 246.714844 225.933594 246.046875 225.535156 C 245.382812 225.140625 244.75 224.699219 244.152344 224.207031 C 243.554688 223.714844 242.996094 223.183594 242.476562 222.609375 L 187.585938 161.335938 L 133.003906 222.476562 C 132.328125 223.230469 131.585938 223.910156 130.777344 224.519531 C 129.96875 225.128906 129.109375 225.652344 128.195312 226.089844 C 127.285156 226.527344 126.339844 226.875 125.359375 227.125 C 124.378906 227.378906 123.382812 227.53125 122.371094 227.589844 C 121.359375 227.644531 120.355469 227.601562 119.351562 227.460938 C 118.351562 227.316406 117.371094 227.078125 116.417969 226.746094 C 115.460938 226.410156 114.546875 225.984375 113.675781 225.46875 C 112.804688 224.957031 111.992188 224.359375 111.238281 223.6875 C 110.484375 223.011719 109.800781 222.269531 109.195312 221.460938 C 108.585938 220.652344 108.0625 219.789062 107.625 218.878906 C 107.183594 217.964844 106.839844 217.019531 106.585938 216.039062 C 106.335938 215.058594 106.179688 214.0625 106.125 213.054688 C 106.066406 212.042969 106.109375 211.035156 106.253906 210.035156 C 106.394531 209.03125 106.632812 208.054688 106.96875 207.097656 C 107.304688 206.144531 107.726562 205.230469 108.242188 204.359375 C 108.757812 203.488281 109.351562 202.671875 110.027344 201.917969 L 176.054688 127.96875 C 176.78125 127.160156 177.585938 126.4375 178.464844 125.796875 C 179.34375 125.160156 180.28125 124.617188 181.273438 124.171875 C 182.269531 123.730469 183.296875 123.394531 184.359375 123.164062 C 185.421875 122.9375 186.5 122.820312 187.585938 122.820312 C 188.667969 122.824219 189.738281 122.9375 190.792969 123.167969 C 191.851562 123.394531 192.871094 123.730469 193.855469 124.175781 C 194.84375 124.621094 195.773438 125.160156 196.644531 125.800781 C 197.515625 126.441406 198.3125 127.164062 199.03125 127.96875 L 265.410156 201.917969 C 266.691406 203.34375 267.671875 204.953125 268.347656 206.746094 C 269.023438 208.539062 269.351562 210.390625 269.328125 212.308594 Z M 269.328125 212.308594"/></svg>