<svg xmlns="http://www.w3.org/2000/svg" width="375" viewBox="0 0 375 375" height="375" version="1.0"><defs><clipPath id="a"><path d="M 3.875 3.875 L 371.375 3.875 L 371.375 371.375 L 3.875 371.375 Z M 3.875 3.875"/></clipPath></defs><g clip-path="url(#a)"><path fill="#1780A1" d="M 3.875 187.625 C 3.875 184.617188 3.949219 181.613281 4.09375 178.609375 C 4.242188 175.605469 4.464844 172.605469 4.757812 169.613281 C 5.054688 166.621094 5.421875 163.636719 5.863281 160.664062 C 6.304688 157.6875 6.816406 154.726562 7.40625 151.777344 C 7.992188 148.828125 8.648438 145.894531 9.378906 142.976562 C 10.113281 140.058594 10.914062 137.160156 11.785156 134.285156 C 12.660156 131.40625 13.601562 128.550781 14.617188 125.71875 C 15.628906 122.890625 16.710938 120.085938 17.859375 117.304688 C 19.011719 114.527344 20.230469 111.777344 21.515625 109.0625 C 22.800781 106.34375 24.152344 103.65625 25.570312 101.003906 C 26.988281 98.351562 28.46875 95.738281 30.015625 93.15625 C 31.5625 90.578125 33.171875 88.039062 34.839844 85.539062 C 36.511719 83.039062 38.242188 80.578125 40.035156 78.164062 C 41.824219 75.75 43.675781 73.378906 45.582031 71.054688 C 47.492188 68.730469 49.453125 66.453125 51.472656 64.226562 C 53.492188 61.996094 55.566406 59.820312 57.691406 57.691406 C 59.820312 55.566406 61.996094 53.492188 64.226562 51.472656 C 66.453125 49.453125 68.730469 47.492188 71.054688 45.582031 C 73.378906 43.675781 75.75 41.824219 78.164062 40.035156 C 80.578125 38.242188 83.039062 36.511719 85.539062 34.839844 C 88.039062 33.171875 90.578125 31.5625 93.15625 30.015625 C 95.738281 28.46875 98.351562 26.988281 101.003906 25.570312 C 103.65625 24.152344 106.34375 22.800781 109.0625 21.515625 C 111.777344 20.230469 114.527344 19.011719 117.304688 17.859375 C 120.085938 16.710938 122.890625 15.628906 125.71875 14.617188 C 128.550781 13.601562 131.40625 12.660156 134.285156 11.785156 C 137.160156 10.914062 140.058594 10.113281 142.976562 9.378906 C 145.894531 8.648438 148.828125 7.992188 151.777344 7.40625 C 154.726562 6.816406 157.6875 6.304688 160.664062 5.863281 C 163.636719 5.421875 166.621094 5.054688 169.613281 4.757812 C 172.605469 4.464844 175.605469 4.242188 178.609375 4.09375 C 181.613281 3.949219 184.617188 3.875 187.625 3.875 C 190.632812 3.875 193.636719 3.949219 196.640625 4.09375 C 199.644531 4.242188 202.640625 4.464844 205.632812 4.757812 C 208.628906 5.054688 211.609375 5.421875 214.585938 5.863281 C 217.558594 6.304688 220.523438 6.816406 223.472656 7.40625 C 226.421875 7.992188 229.355469 8.648438 232.273438 9.378906 C 235.1875 10.113281 238.085938 10.914062 240.964844 11.785156 C 243.839844 12.660156 246.695312 13.601562 249.527344 14.617188 C 252.359375 15.628906 255.164062 16.710938 257.941406 17.859375 C 260.71875 19.011719 263.46875 20.230469 266.1875 21.515625 C 268.90625 22.800781 271.589844 24.152344 274.242188 25.570312 C 276.894531 26.988281 279.511719 28.46875 282.089844 30.015625 C 284.667969 31.5625 287.210938 33.171875 289.710938 34.839844 C 292.210938 36.511719 294.667969 38.242188 297.082031 40.035156 C 299.5 41.824219 301.871094 43.675781 304.195312 45.582031 C 306.519531 47.492188 308.792969 49.453125 311.023438 51.472656 C 313.25 53.492188 315.429688 55.566406 317.554688 57.691406 C 319.679688 59.820312 321.753906 61.996094 323.773438 64.226562 C 325.792969 66.453125 327.757812 68.730469 329.664062 71.054688 C 331.574219 73.378906 333.421875 75.75 335.214844 78.164062 C 337.003906 80.578125 338.734375 83.039062 340.40625 85.539062 C 342.078125 88.039062 343.6875 90.578125 345.230469 93.15625 C 346.777344 95.738281 348.257812 98.351562 349.675781 101.003906 C 351.09375 103.65625 352.445312 106.34375 353.730469 109.0625 C 355.019531 111.777344 356.234375 114.527344 357.386719 117.304688 C 358.539062 120.085938 359.621094 122.890625 360.632812 125.71875 C 361.644531 128.550781 362.589844 131.40625 363.460938 134.285156 C 364.335938 137.160156 365.136719 140.058594 365.867188 142.976562 C 366.597656 145.894531 367.257812 148.828125 367.84375 151.777344 C 368.429688 154.726562 368.945312 157.6875 369.386719 160.664062 C 369.828125 163.636719 370.195312 166.621094 370.488281 169.613281 C 370.785156 172.605469 371.003906 175.605469 371.152344 178.609375 C 371.300781 181.613281 371.375 184.617188 371.375 187.625 C 371.375 190.632812 371.300781 193.636719 371.152344 196.640625 C 371.003906 199.644531 370.785156 202.640625 370.488281 205.632812 C 370.195312 208.628906 369.828125 211.609375 369.386719 214.585938 C 368.945312 217.558594 368.429688 220.523438 367.84375 223.472656 C 367.257812 226.421875 366.597656 229.355469 365.867188 232.273438 C 365.136719 235.1875 364.335938 238.085938 363.460938 240.964844 C 362.589844 243.839844 361.644531 246.695312 360.632812 249.527344 C 359.621094 252.359375 358.539062 255.164062 357.386719 257.941406 C 356.234375 260.71875 355.019531 263.46875 353.730469 266.1875 C 352.445312 268.90625 351.09375 271.589844 349.675781 274.242188 C 348.257812 276.894531 346.777344 279.511719 345.230469 282.089844 C 343.6875 284.667969 342.078125 287.210938 340.40625 289.710938 C 338.734375 292.210938 337.003906 294.667969 335.214844 297.082031 C 333.421875 299.5 331.574219 301.867188 329.664062 304.195312 C 327.757812 306.519531 325.792969 308.792969 323.773438 311.023438 C 321.753906 313.25 319.679688 315.429688 317.554688 317.554688 C 315.429688 319.679688 313.25 321.753906 311.023438 323.773438 C 308.792969 325.792969 306.519531 327.757812 304.195312 329.664062 C 301.871094 331.574219 299.5 333.421875 297.082031 335.214844 C 294.667969 337.003906 292.210938 338.734375 289.710938 340.40625 C 287.210938 342.078125 284.667969 343.6875 282.089844 345.230469 C 279.511719 346.777344 276.894531 348.257812 274.242188 349.675781 C 271.589844 351.09375 268.90625 352.445312 266.1875 353.730469 C 263.46875 355.019531 260.71875 356.234375 257.941406 357.386719 C 255.164062 358.539062 252.359375 359.621094 249.527344 360.632812 C 246.695312 361.644531 243.839844 362.589844 240.964844 363.460938 C 238.085938 364.335938 235.1875 365.136719 232.273438 365.867188 C 229.355469 366.597656 226.421875 367.257812 223.472656 367.84375 C 220.523438 368.429688 217.558594 368.945312 214.585938 369.386719 C 211.609375 369.828125 208.628906 370.195312 205.632812 370.488281 C 202.640625 370.785156 199.644531 371.003906 196.640625 371.152344 C 193.636719 371.300781 190.632812 371.375 187.625 371.375 C 184.617188 371.367188 181.613281 371.289062 178.613281 371.136719 C 175.609375 370.984375 172.613281 370.757812 169.625 370.457031 C 166.632812 370.15625 163.652344 369.785156 160.679688 369.339844 C 157.707031 368.894531 154.746094 368.375 151.800781 367.785156 C 148.851562 367.195312 145.921875 366.53125 143.007812 365.796875 C 140.09375 365.0625 137.199219 364.257812 134.324219 363.382812 C 131.449219 362.507812 128.597656 361.5625 125.765625 360.546875 C 122.9375 359.53125 120.136719 358.445312 117.359375 357.292969 C 114.585938 356.140625 111.839844 354.921875 109.121094 353.632812 C 106.40625 352.347656 103.722656 350.992188 101.074219 349.574219 C 98.425781 348.15625 95.8125 346.671875 93.234375 345.125 C 90.65625 343.578125 88.117188 341.96875 85.621094 340.300781 C 83.121094 338.628906 80.667969 336.898438 78.253906 335.105469 C 75.839844 333.3125 73.472656 331.464844 71.148438 329.558594 C 68.824219 327.652344 66.550781 325.6875 64.324219 323.667969 C 62.097656 321.648438 59.921875 319.578125 57.796875 317.453125 C 55.671875 315.328125 53.597656 313.152344 51.578125 310.925781 C 49.558594 308.699219 47.597656 306.421875 45.691406 304.101562 C 43.78125 301.777344 41.933594 299.410156 40.140625 296.996094 C 38.351562 294.582031 36.621094 292.125 34.949219 289.628906 C 33.277344 287.128906 31.667969 284.589844 30.121094 282.015625 C 28.574219 279.4375 27.09375 276.824219 25.671875 274.175781 C 24.253906 271.523438 22.902344 268.839844 21.613281 266.125 C 20.328125 263.410156 19.105469 260.664062 17.953125 257.886719 C 16.800781 255.113281 15.71875 252.308594 14.703125 249.480469 C 13.6875 246.652344 12.742188 243.800781 11.863281 240.925781 C 10.988281 238.050781 10.183594 235.15625 9.449219 232.238281 C 8.714844 229.324219 8.054688 226.394531 7.460938 223.449219 C 6.871094 220.5 6.355469 217.539062 5.90625 214.570312 C 5.460938 211.597656 5.089844 208.613281 4.789062 205.625 C 4.492188 202.632812 4.265625 199.636719 4.113281 196.636719 C 3.957031 193.632812 3.878906 190.628906 3.875 187.625 Z M 353.875 187.625 C 353.875 184.902344 353.808594 182.183594 353.671875 179.464844 C 353.539062 176.75 353.339844 174.035156 353.074219 171.328125 C 352.808594 168.621094 352.472656 165.921875 352.074219 163.230469 C 351.675781 160.539062 351.210938 157.859375 350.679688 155.191406 C 350.148438 152.523438 349.554688 149.867188 348.890625 147.226562 C 348.230469 144.589844 347.503906 141.96875 346.714844 139.363281 C 345.925781 136.761719 345.074219 134.179688 344.15625 131.617188 C 343.238281 129.054688 342.261719 126.515625 341.21875 124.003906 C 340.175781 121.488281 339.074219 119.003906 337.914062 116.542969 C 336.75 114.082031 335.527344 111.652344 334.242188 109.253906 C 332.960938 106.855469 331.621094 104.488281 330.222656 102.15625 C 328.824219 99.820312 327.367188 97.523438 325.855469 95.261719 C 324.34375 93 322.777344 90.773438 321.15625 88.589844 C 319.535156 86.402344 317.863281 84.257812 316.136719 82.15625 C 314.410156 80.054688 312.632812 77.992188 310.808594 75.976562 C 308.980469 73.960938 307.105469 71.992188 305.179688 70.066406 C 303.257812 68.144531 301.285156 66.269531 299.269531 64.441406 C 297.253906 62.613281 295.195312 60.835938 293.09375 59.109375 C 290.988281 57.386719 288.84375 55.710938 286.660156 54.089844 C 284.472656 52.46875 282.25 50.902344 279.988281 49.390625 C 277.726562 47.878906 275.425781 46.425781 273.09375 45.027344 C 270.761719 43.628906 268.394531 42.289062 265.992188 41.003906 C 263.59375 39.722656 261.164062 38.5 258.703125 37.335938 C 256.246094 36.171875 253.757812 35.070312 251.246094 34.027344 C 248.730469 32.988281 246.195312 32.007812 243.632812 31.09375 C 241.070312 30.175781 238.488281 29.324219 235.882812 28.53125 C 233.28125 27.742188 230.660156 27.015625 228.019531 26.355469 C 225.378906 25.695312 222.726562 25.097656 220.058594 24.570312 C 217.390625 24.039062 214.710938 23.574219 212.019531 23.171875 C 209.328125 22.773438 206.628906 22.441406 203.917969 22.175781 C 201.210938 21.90625 198.5 21.707031 195.78125 21.574219 C 193.0625 21.441406 190.34375 21.375 187.625 21.375 C 184.902344 21.375 182.183594 21.441406 179.464844 21.574219 C 176.75 21.707031 174.035156 21.90625 171.328125 22.175781 C 168.621094 22.441406 165.921875 22.773438 163.230469 23.171875 C 160.539062 23.574219 157.859375 24.039062 155.191406 24.570312 C 152.523438 25.097656 149.867188 25.695312 147.226562 26.355469 C 144.589844 27.015625 141.96875 27.742188 139.363281 28.53125 C 136.761719 29.324219 134.179688 30.175781 131.617188 31.09375 C 129.054688 32.007812 126.515625 32.988281 124.003906 34.027344 C 121.488281 35.070312 119.003906 36.171875 116.542969 37.335938 C 114.082031 38.5 111.652344 39.722656 109.253906 41.003906 C 106.855469 42.289062 104.488281 43.628906 102.15625 45.027344 C 99.820312 46.425781 97.523438 47.878906 95.261719 49.390625 C 93 50.902344 90.773438 52.46875 88.589844 54.089844 C 86.402344 55.710938 84.257812 57.386719 82.15625 59.109375 C 80.054688 60.835938 77.992188 62.613281 75.976562 64.441406 C 73.960938 66.269531 71.992188 68.144531 70.066406 70.066406 C 68.144531 71.992188 66.269531 73.960938 64.441406 75.976562 C 62.613281 77.992188 60.835938 80.054688 59.109375 82.15625 C 57.386719 84.257812 55.710938 86.402344 54.089844 88.589844 C 52.46875 90.773438 50.902344 93 49.390625 95.261719 C 47.878906 97.523438 46.425781 99.820312 45.027344 102.15625 C 43.628906 104.488281 42.289062 106.855469 41.003906 109.253906 C 39.722656 111.652344 38.5 114.082031 37.335938 116.542969 C 36.171875 119.003906 35.070312 121.488281 34.027344 124.003906 C 32.988281 126.515625 32.007812 129.054688 31.09375 131.617188 C 30.175781 134.179688 29.324219 136.761719 28.53125 139.363281 C 27.742188 141.96875 27.015625 144.589844 26.355469 147.226562 C 25.695312 149.867188 25.097656 152.523438 24.570312 155.191406 C 24.039062 157.859375 23.574219 160.539062 23.171875 163.230469 C 22.773438 165.921875 22.441406 168.621094 22.175781 171.328125 C 21.90625 174.035156 21.707031 176.75 21.574219 179.464844 C 21.441406 182.183594 21.375 184.902344 21.375 187.625 C 21.375 190.34375 21.441406 193.0625 21.574219 195.78125 C 21.707031 198.5 21.90625 201.210938 22.175781 203.917969 C 22.441406 206.628906 22.773438 209.328125 23.171875 212.019531 C 23.574219 214.710938 24.039062 217.390625 24.570312 220.058594 C 25.097656 222.726562 25.695312 225.378906 26.355469 228.019531 C 27.015625 230.660156 27.742188 233.28125 28.53125 235.882812 C 29.324219 238.488281 30.175781 241.070312 31.09375 243.632812 C 32.007812 246.195312 32.988281 248.730469 34.027344 251.246094 C 35.070312 253.757812 36.171875 256.246094 37.335938 258.703125 C 38.5 261.164062 39.722656 263.59375 41.003906 265.992188 C 42.289062 268.394531 43.628906 270.761719 45.027344 273.09375 C 46.425781 275.425781 47.878906 277.726562 49.390625 279.988281 C 50.902344 282.25 52.46875 284.472656 54.089844 286.660156 C 55.710938 288.84375 57.386719 290.988281 59.109375 293.09375 C 60.835938 295.195312 62.613281 297.253906 64.441406 299.269531 C 66.269531 301.285156 68.144531 303.257812 70.066406 305.179688 C 71.992188 307.105469 73.960938 308.980469 75.976562 310.808594 C 77.992188 312.632812 80.054688 314.410156 82.15625 316.136719 C 84.257812 317.863281 86.402344 319.535156 88.589844 321.15625 C 90.773438 322.777344 93 324.34375 95.261719 325.855469 C 97.523438 327.367188 99.820312 328.824219 102.15625 330.222656 C 104.488281 331.621094 106.855469 332.960938 109.253906 334.242188 C 111.652344 335.527344 114.082031 336.75 116.542969 337.914062 C 119.003906 339.074219 121.488281 340.175781 124.003906 341.21875 C 126.515625 342.261719 129.054688 343.238281 131.617188 344.15625 C 134.179688 345.070312 136.761719 345.925781 139.363281 346.714844 C 141.96875 347.503906 144.589844 348.230469 147.226562 348.890625 C 149.867188 349.554688 152.523438 350.148438 155.191406 350.679688 C 157.859375 351.210938 160.539062 351.675781 163.230469 352.074219 C 165.921875 352.472656 168.621094 352.808594 171.328125 353.074219 C 174.035156 353.339844 176.75 353.539062 179.464844 353.671875 C 182.183594 353.808594 184.902344 353.875 187.625 353.875 C 190.34375 353.867188 193.0625 353.796875 195.777344 353.660156 C 198.492188 353.519531 201.203125 353.316406 203.910156 353.046875 C 206.617188 352.773438 209.3125 352.4375 212.003906 352.035156 C 214.691406 351.632812 217.371094 351.164062 220.035156 350.628906 C 222.703125 350.09375 225.355469 349.496094 227.992188 348.832031 C 230.628906 348.167969 233.25 347.4375 235.851562 346.648438 C 238.449219 345.855469 241.03125 345 243.589844 344.078125 C 246.152344 343.160156 248.6875 342.179688 251.199219 341.136719 C 253.710938 340.09375 256.195312 338.992188 258.652344 337.824219 C 261.109375 336.660156 263.535156 335.4375 265.933594 334.152344 C 268.332031 332.871094 270.695312 331.527344 273.027344 330.128906 C 275.359375 328.730469 277.65625 327.273438 279.914062 325.761719 C 282.175781 324.25 284.398438 322.683594 286.582031 321.0625 C 288.765625 319.441406 290.90625 317.769531 293.007812 316.042969 C 295.113281 314.316406 297.167969 312.542969 299.183594 310.714844 C 301.199219 308.886719 303.167969 307.015625 305.089844 305.089844 C 307.015625 303.167969 308.890625 301.199219 310.714844 299.183594 C 312.542969 297.167969 314.316406 295.113281 316.042969 293.007812 C 317.769531 290.90625 319.441406 288.765625 321.0625 286.582031 C 322.683594 284.398438 324.25 282.175781 325.761719 279.914062 C 327.273438 277.65625 328.730469 275.359375 330.128906 273.027344 C 331.527344 270.695312 332.871094 268.332031 334.152344 265.933594 C 335.4375 263.535156 336.660156 261.109375 337.824219 258.652344 C 338.992188 256.195312 340.09375 253.710938 341.136719 251.199219 C 342.179688 248.6875 343.160156 246.152344 344.078125 243.589844 C 345 241.03125 345.855469 238.449219 346.648438 235.851562 C 347.4375 233.25 348.167969 230.628906 348.832031 227.992188 C 349.496094 225.355469 350.09375 222.703125 350.628906 220.035156 C 351.164062 217.371094 351.632812 214.691406 352.035156 212.003906 C 352.4375 209.3125 352.773438 206.617188 353.046875 203.910156 C 353.316406 201.203125 353.519531 198.492188 353.660156 195.777344 C 353.796875 193.0625 353.867188 190.34375 353.875 187.625 Z M 353.875 187.625"/></g><path fill="#1780A1" d="M 106.378906 165.75 C 106.382812 164.980469 106.4375 164.214844 106.554688 163.453125 C 106.671875 162.695312 106.84375 161.945312 107.070312 161.210938 C 107.300781 160.476562 107.582031 159.761719 107.917969 159.070312 C 108.253906 158.378906 108.640625 157.714844 109.078125 157.082031 C 109.515625 156.449219 109.996094 155.851562 110.523438 155.289062 C 111.046875 154.726562 111.613281 154.210938 112.21875 153.734375 C 112.820312 153.257812 113.457031 152.828125 114.128906 152.449219 C 114.796875 152.070312 115.488281 151.742188 116.207031 151.464844 C 116.925781 151.191406 117.660156 150.96875 118.414062 150.804688 C 119.164062 150.640625 119.925781 150.53125 120.691406 150.484375 C 121.460938 150.433594 122.226562 150.441406 122.992188 150.503906 C 123.761719 150.570312 124.519531 150.691406 125.265625 150.871094 C 126.015625 151.050781 126.746094 151.285156 127.457031 151.578125 C 128.171875 151.867188 128.855469 152.207031 129.519531 152.601562 C 130.179688 152.992188 130.808594 153.433594 131.402344 153.921875 C 131.996094 154.410156 132.550781 154.941406 133.066406 155.511719 L 187.625 216.410156 L 241.875 155.644531 C 242.542969 154.894531 243.28125 154.21875 244.085938 153.613281 C 244.890625 153.007812 245.746094 152.488281 246.652344 152.054688 C 247.558594 151.617188 248.5 151.273438 249.472656 151.023438 C 250.449219 150.773438 251.4375 150.621094 252.441406 150.566406 C 253.445312 150.511719 254.445312 150.554688 255.441406 150.695312 C 256.4375 150.835938 257.410156 151.074219 258.359375 151.40625 C 259.308594 151.738281 260.214844 152.160156 261.082031 152.671875 C 261.945312 153.183594 262.753906 153.773438 263.503906 154.445312 C 264.253906 155.117188 264.929688 155.851562 265.535156 156.65625 C 266.136719 157.460938 266.660156 158.316406 267.09375 159.222656 C 267.53125 160.128906 267.875 161.070312 268.125 162.042969 C 268.375 163.015625 268.527344 164.003906 268.585938 165.007812 C 268.640625 166.011719 268.597656 167.011719 268.457031 168.007812 C 268.316406 169.003906 268.082031 169.976562 267.75 170.925781 C 267.417969 171.875 266.996094 172.785156 266.484375 173.648438 C 265.972656 174.515625 265.382812 175.324219 264.710938 176.074219 L 199.085938 249.574219 C 198.363281 250.378906 197.5625 251.097656 196.6875 251.730469 C 195.816406 252.367188 194.882812 252.90625 193.898438 253.347656 C 192.910156 253.789062 191.886719 254.121094 190.832031 254.347656 C 189.773438 254.574219 188.703125 254.691406 187.625 254.691406 C 186.550781 254.6875 185.488281 254.574219 184.4375 254.347656 C 183.386719 254.121094 182.371094 253.785156 181.390625 253.34375 C 180.410156 252.902344 179.488281 252.363281 178.621094 251.730469 C 177.753906 251.09375 176.964844 250.375 176.25 249.574219 L 110.273438 176.074219 C 109 174.660156 108.027344 173.058594 107.355469 171.277344 C 106.683594 169.496094 106.359375 167.652344 106.378906 165.75 Z M 106.378906 165.75"/></svg>