<svg xmlns="http://www.w3.org/2000/svg" width="375" viewBox="0 0 375 375" height="375" version="1.0"><defs><clipPath id="a"><path d="M 3.875 7.746094 L 371.375 7.746094 L 371.375 375 L 3.875 375 Z M 3.875 7.746094"/></clipPath></defs><g clip-path="url(#a)"><path fill="#FDFFFC" d="M 3.875 191.496094 C 3.875 188.492188 3.949219 185.484375 4.09375 182.480469 C 4.242188 179.476562 4.464844 176.480469 4.757812 173.488281 C 5.054688 170.496094 5.421875 167.511719 5.863281 164.535156 C 6.304688 161.5625 6.816406 158.597656 7.40625 155.648438 C 7.992188 152.699219 8.648438 149.765625 9.378906 146.851562 C 10.113281 143.933594 10.914062 141.035156 11.785156 138.15625 C 12.660156 135.28125 13.601562 132.425781 14.617188 129.59375 C 15.628906 126.761719 16.710938 123.957031 17.859375 121.179688 C 19.011719 118.402344 20.230469 115.652344 21.515625 112.933594 C 22.800781 110.214844 24.152344 107.53125 25.570312 104.878906 C 26.988281 102.226562 28.46875 99.609375 30.015625 97.03125 C 31.5625 94.453125 33.171875 91.914062 34.839844 89.410156 C 36.511719 86.910156 38.242188 84.453125 40.035156 82.039062 C 41.824219 79.621094 43.675781 77.253906 45.582031 74.929688 C 47.492188 72.605469 49.453125 70.328125 51.472656 68.097656 C 53.492188 65.871094 55.566406 63.695312 57.691406 61.566406 C 59.820312 59.441406 61.996094 57.367188 64.226562 55.347656 C 66.453125 53.328125 68.730469 51.363281 71.054688 49.457031 C 73.378906 47.550781 75.75 45.699219 78.164062 43.910156 C 80.578125 42.117188 83.039062 40.386719 85.539062 38.714844 C 88.039062 37.042969 90.578125 35.4375 93.15625 33.890625 C 95.738281 32.34375 98.351562 30.863281 101.003906 29.445312 C 103.65625 28.027344 106.34375 26.675781 109.0625 25.390625 C 111.777344 24.105469 114.527344 22.886719 117.304688 21.734375 C 120.085938 20.585938 122.890625 19.503906 125.71875 18.488281 C 128.550781 17.476562 131.40625 16.53125 134.285156 15.660156 C 137.160156 14.789062 140.058594 13.984375 142.976562 13.253906 C 145.894531 12.523438 148.828125 11.867188 151.777344 11.277344 C 154.726562 10.691406 157.6875 10.179688 160.664062 9.738281 C 163.636719 9.296875 166.621094 8.925781 169.613281 8.632812 C 172.605469 8.339844 175.605469 8.117188 178.609375 7.96875 C 181.613281 7.820312 184.617188 7.746094 187.625 7.746094 C 190.632812 7.746094 193.636719 7.820312 196.640625 7.96875 C 199.644531 8.117188 202.640625 8.339844 205.632812 8.632812 C 208.628906 8.925781 211.609375 9.296875 214.585938 9.738281 C 217.558594 10.179688 220.523438 10.691406 223.472656 11.277344 C 226.421875 11.867188 229.355469 12.523438 232.273438 13.253906 C 235.1875 13.984375 238.085938 14.789062 240.964844 15.660156 C 243.839844 16.53125 246.695312 17.476562 249.527344 18.488281 C 252.359375 19.503906 255.164062 20.585938 257.941406 21.734375 C 260.71875 22.886719 263.46875 24.105469 266.1875 25.390625 C 268.90625 26.675781 271.589844 28.027344 274.242188 29.445312 C 276.894531 30.863281 279.511719 32.34375 282.089844 33.890625 C 284.667969 35.4375 287.210938 37.042969 289.710938 38.714844 C 292.210938 40.386719 294.667969 42.117188 297.082031 43.910156 C 299.5 45.699219 301.871094 47.550781 304.195312 49.457031 C 306.519531 51.363281 308.792969 53.328125 311.023438 55.347656 C 313.25 57.367188 315.429688 59.441406 317.554688 61.566406 C 319.679688 63.695312 321.753906 65.871094 323.773438 68.097656 C 325.792969 70.328125 327.757812 72.605469 329.664062 74.929688 C 331.574219 77.253906 333.421875 79.621094 335.214844 82.039062 C 337.003906 84.453125 338.734375 86.910156 340.40625 89.410156 C 342.078125 91.914062 343.6875 94.453125 345.230469 97.03125 C 346.777344 99.609375 348.257812 102.226562 349.675781 104.878906 C 351.09375 107.53125 352.445312 110.214844 353.730469 112.933594 C 355.019531 115.652344 356.234375 118.402344 357.386719 121.179688 C 358.539062 123.957031 359.621094 126.761719 360.632812 129.59375 C 361.644531 132.425781 362.589844 135.28125 363.460938 138.15625 C 364.335938 141.035156 365.136719 143.933594 365.867188 146.851562 C 366.597656 149.765625 367.257812 152.699219 367.84375 155.648438 C 368.429688 158.597656 368.945312 161.5625 369.386719 164.535156 C 369.828125 167.511719 370.195312 170.496094 370.488281 173.488281 C 370.785156 176.480469 371.003906 179.476562 371.152344 182.480469 C 371.300781 185.484375 371.375 188.492188 371.375 191.496094 C 371.375 194.503906 371.300781 197.511719 371.152344 200.515625 C 371.003906 203.519531 370.785156 206.515625 370.488281 209.507812 C 370.195312 212.5 369.828125 215.484375 369.386719 218.460938 C 368.945312 221.433594 368.429688 224.394531 367.84375 227.347656 C 367.257812 230.296875 366.597656 233.226562 365.867188 236.144531 C 365.136719 239.0625 364.335938 241.960938 363.460938 244.835938 C 362.589844 247.714844 361.644531 250.570312 360.632812 253.402344 C 359.621094 256.234375 358.539062 259.039062 357.386719 261.816406 C 356.234375 264.59375 355.019531 267.34375 353.730469 270.0625 C 352.445312 272.78125 351.09375 275.464844 349.675781 278.117188 C 348.257812 280.769531 346.777344 283.386719 345.230469 285.964844 C 343.6875 288.542969 342.078125 291.082031 340.40625 293.582031 C 338.734375 296.085938 337.003906 298.542969 335.214844 300.957031 C 333.421875 303.375 331.574219 305.742188 329.664062 308.066406 C 327.757812 310.390625 325.792969 312.667969 323.773438 314.898438 C 321.753906 317.125 319.679688 319.300781 317.554688 321.429688 C 315.429688 323.554688 313.25 325.628906 311.023438 327.648438 C 308.792969 329.667969 306.519531 331.632812 304.195312 333.539062 C 301.871094 335.445312 299.5 337.296875 297.082031 339.085938 C 294.667969 340.878906 292.210938 342.609375 289.710938 344.28125 C 287.210938 345.953125 284.667969 347.558594 282.089844 349.105469 C 279.511719 350.652344 276.894531 352.132812 274.242188 353.550781 C 271.589844 354.96875 268.90625 356.320312 266.1875 357.605469 C 263.46875 358.890625 260.71875 360.109375 257.941406 361.261719 C 255.164062 362.410156 252.359375 363.492188 249.527344 364.507812 C 246.695312 365.519531 243.839844 366.460938 240.964844 367.335938 C 238.085938 368.207031 235.1875 369.011719 232.273438 369.742188 C 229.355469 370.472656 226.421875 371.128906 223.472656 371.71875 C 220.523438 372.304688 217.558594 372.816406 214.585938 373.257812 C 211.609375 373.699219 208.628906 374.070312 205.632812 374.363281 C 202.640625 374.65625 199.644531 374.878906 196.640625 375.027344 C 193.636719 375.175781 190.632812 375.246094 187.625 375.246094 C 184.617188 375.242188 181.613281 375.164062 178.613281 375.011719 C 175.609375 374.855469 172.613281 374.632812 169.625 374.332031 C 166.632812 374.03125 163.652344 373.660156 160.679688 373.214844 C 157.707031 372.769531 154.746094 372.25 151.800781 371.660156 C 148.851562 371.070312 145.921875 370.40625 143.007812 369.671875 C 140.09375 368.9375 137.199219 368.132812 134.324219 367.257812 C 131.449219 366.382812 128.597656 365.4375 125.765625 364.421875 C 122.9375 363.40625 120.136719 362.320312 117.359375 361.167969 C 114.585938 360.015625 111.839844 358.792969 109.121094 357.507812 C 106.40625 356.21875 103.722656 354.867188 101.074219 353.449219 C 98.425781 352.03125 95.8125 350.546875 93.234375 349 C 90.65625 347.453125 88.117188 345.84375 85.621094 344.171875 C 83.121094 342.503906 80.667969 340.769531 78.253906 338.980469 C 75.839844 337.1875 73.472656 335.339844 71.148438 333.433594 C 68.824219 331.523438 66.550781 329.5625 64.324219 327.542969 C 62.097656 325.523438 59.921875 323.453125 57.796875 321.328125 C 55.671875 319.203125 53.597656 317.023438 51.578125 314.796875 C 49.558594 312.570312 47.597656 310.296875 45.691406 307.972656 C 43.78125 305.652344 41.933594 303.28125 40.140625 300.867188 C 38.351562 298.457031 36.621094 296 34.949219 293.5 C 33.277344 291.003906 31.667969 288.464844 30.121094 285.886719 C 28.574219 283.3125 27.09375 280.699219 25.671875 278.046875 C 24.253906 275.398438 22.902344 272.714844 21.613281 270 C 20.328125 267.285156 19.105469 264.539062 17.953125 261.761719 C 16.800781 258.984375 15.71875 256.183594 14.703125 253.355469 C 13.6875 250.527344 12.742188 247.675781 11.863281 244.796875 C 10.988281 241.921875 10.183594 239.027344 9.449219 236.113281 C 8.714844 233.199219 8.054688 230.269531 7.460938 227.320312 C 6.871094 224.375 6.355469 221.414062 5.90625 218.441406 C 5.460938 215.46875 5.089844 212.488281 4.789062 209.496094 C 4.492188 206.507812 4.265625 203.511719 4.113281 200.507812 C 3.957031 197.507812 3.878906 194.503906 3.875 191.496094 Z M 353.875 191.496094 C 353.875 188.777344 353.808594 186.058594 353.671875 183.339844 C 353.539062 180.621094 353.339844 177.910156 353.074219 175.203125 C 352.808594 172.496094 352.472656 169.796875 352.074219 167.105469 C 351.675781 164.414062 351.210938 161.734375 350.679688 159.0625 C 350.148438 156.394531 349.554688 153.742188 348.890625 151.101562 C 348.230469 148.464844 347.503906 145.839844 346.714844 143.238281 C 345.925781 140.632812 345.074219 138.050781 344.15625 135.488281 C 343.238281 132.929688 342.261719 130.390625 341.21875 127.875 C 340.175781 125.363281 339.074219 122.875 337.914062 120.417969 C 336.75 117.957031 335.527344 115.527344 334.242188 113.128906 C 332.960938 110.730469 331.621094 108.363281 330.222656 106.027344 C 328.824219 103.695312 327.367188 101.398438 325.855469 99.132812 C 324.34375 96.871094 322.777344 94.648438 321.15625 92.464844 C 319.535156 90.277344 317.863281 88.132812 316.136719 86.03125 C 314.410156 83.925781 312.632812 81.867188 310.808594 79.851562 C 308.980469 77.835938 307.105469 75.867188 305.179688 73.941406 C 303.257812 72.015625 301.285156 70.140625 299.269531 68.316406 C 297.253906 66.488281 295.195312 64.710938 293.09375 62.984375 C 290.988281 61.257812 288.84375 59.585938 286.660156 57.964844 C 284.472656 56.34375 282.25 54.777344 279.988281 53.265625 C 277.726562 51.753906 275.425781 50.300781 273.09375 48.902344 C 270.761719 47.5 268.394531 46.160156 265.992188 44.878906 C 263.59375 43.597656 261.164062 42.371094 258.703125 41.210938 C 256.246094 40.046875 253.757812 38.945312 251.246094 37.902344 C 248.730469 36.863281 246.195312 35.882812 243.632812 34.964844 C 241.070312 34.050781 238.488281 33.195312 235.882812 32.40625 C 233.28125 31.617188 230.660156 30.890625 228.019531 30.230469 C 225.378906 29.570312 222.726562 28.972656 220.058594 28.441406 C 217.390625 27.910156 214.710938 27.445312 212.019531 27.046875 C 209.328125 26.648438 206.628906 26.316406 203.917969 26.046875 C 201.210938 25.78125 198.5 25.582031 195.78125 25.449219 C 193.0625 25.316406 190.34375 25.246094 187.625 25.246094 C 184.902344 25.246094 182.183594 25.316406 179.464844 25.449219 C 176.75 25.582031 174.035156 25.78125 171.328125 26.046875 C 168.621094 26.316406 165.921875 26.648438 163.230469 27.046875 C 160.539062 27.445312 157.859375 27.910156 155.191406 28.441406 C 152.523438 28.972656 149.867188 29.570312 147.226562 30.230469 C 144.589844 30.890625 141.96875 31.617188 139.363281 32.40625 C 136.761719 33.195312 134.179688 34.050781 131.617188 34.964844 C 129.054688 35.882812 126.515625 36.863281 124.003906 37.902344 C 121.488281 38.945312 119.003906 40.046875 116.542969 41.210938 C 114.082031 42.371094 111.652344 43.597656 109.253906 44.878906 C 106.855469 46.160156 104.488281 47.5 102.15625 48.902344 C 99.820312 50.300781 97.523438 51.753906 95.261719 53.265625 C 93 54.777344 90.773438 56.34375 88.589844 57.964844 C 86.402344 59.585938 84.257812 61.257812 82.15625 62.984375 C 80.054688 64.710938 77.992188 66.488281 75.976562 68.316406 C 73.960938 70.140625 71.992188 72.015625 70.066406 73.941406 C 68.144531 75.867188 66.269531 77.835938 64.441406 79.851562 C 62.613281 81.867188 60.835938 83.925781 59.109375 86.03125 C 57.386719 88.132812 55.710938 90.277344 54.089844 92.464844 C 52.46875 94.648438 50.902344 96.871094 49.390625 99.132812 C 47.878906 101.398438 46.425781 103.695312 45.027344 106.027344 C 43.628906 108.363281 42.289062 110.730469 41.003906 113.128906 C 39.722656 115.527344 38.5 117.957031 37.335938 120.417969 C 36.171875 122.875 35.070312 125.363281 34.027344 127.875 C 32.988281 130.390625 32.007812 132.929688 31.09375 135.488281 C 30.175781 138.050781 29.324219 140.632812 28.53125 143.238281 C 27.742188 145.839844 27.015625 148.464844 26.355469 151.101562 C 25.695312 153.742188 25.097656 156.394531 24.570312 159.0625 C 24.039062 161.734375 23.574219 164.414062 23.171875 167.105469 C 22.773438 169.796875 22.441406 172.496094 22.175781 175.203125 C 21.90625 177.910156 21.707031 180.621094 21.574219 183.339844 C 21.441406 186.058594 21.375 188.777344 21.375 191.496094 C 21.375 194.21875 21.441406 196.9375 21.574219 199.65625 C 21.707031 202.371094 21.90625 205.085938 22.175781 207.792969 C 22.441406 210.5 22.773438 213.199219 23.171875 215.890625 C 23.574219 218.582031 24.039062 221.261719 24.570312 223.933594 C 25.097656 226.601562 25.695312 229.253906 26.355469 231.894531 C 27.015625 234.53125 27.742188 237.152344 28.53125 239.757812 C 29.324219 242.363281 30.175781 244.945312 31.09375 247.507812 C 32.007812 250.066406 32.988281 252.605469 34.027344 255.117188 C 35.070312 257.632812 36.171875 260.121094 37.335938 262.578125 C 38.5 265.039062 39.722656 267.46875 41.003906 269.867188 C 42.289062 272.265625 43.628906 274.632812 45.027344 276.96875 C 46.425781 279.300781 47.878906 281.597656 49.390625 283.863281 C 50.902344 286.125 52.46875 288.347656 54.089844 290.53125 C 55.710938 292.71875 57.386719 294.863281 59.109375 296.964844 C 60.835938 299.070312 62.613281 301.128906 64.441406 303.144531 C 66.269531 305.160156 68.144531 307.128906 70.066406 309.054688 C 71.992188 310.976562 73.960938 312.855469 75.976562 314.679688 C 77.992188 316.507812 80.054688 318.285156 82.15625 320.011719 C 84.257812 321.738281 86.402344 323.410156 88.589844 325.03125 C 90.773438 326.652344 93 328.21875 95.261719 329.730469 C 97.523438 331.242188 99.820312 332.695312 102.15625 334.09375 C 104.488281 335.492188 106.855469 336.835938 109.253906 338.117188 C 111.652344 339.398438 114.082031 340.621094 116.542969 341.785156 C 119.003906 342.949219 121.488281 344.050781 124.003906 345.09375 C 126.515625 346.132812 129.054688 347.113281 131.617188 348.03125 C 134.179688 348.945312 136.761719 349.800781 139.363281 350.589844 C 141.96875 351.378906 144.589844 352.105469 147.226562 352.765625 C 149.867188 353.425781 152.523438 354.023438 155.191406 354.554688 C 157.859375 355.085938 160.539062 355.550781 163.230469 355.949219 C 165.921875 356.347656 168.621094 356.679688 171.328125 356.949219 C 174.035156 357.214844 176.75 357.414062 179.464844 357.546875 C 182.183594 357.679688 184.902344 357.746094 187.625 357.746094 C 190.34375 357.742188 193.0625 357.671875 195.777344 357.535156 C 198.492188 357.394531 201.203125 357.191406 203.910156 356.917969 C 206.617188 356.648438 209.3125 356.3125 212.003906 355.910156 C 214.691406 355.503906 217.371094 355.039062 220.035156 354.503906 C 222.703125 353.96875 225.355469 353.371094 227.992188 352.707031 C 230.628906 352.042969 233.25 351.3125 235.851562 350.519531 C 238.449219 349.726562 241.03125 348.871094 243.589844 347.953125 C 246.152344 347.035156 248.6875 346.054688 251.199219 345.011719 C 253.710938 343.96875 256.195312 342.863281 258.652344 341.699219 C 261.109375 340.535156 263.535156 339.3125 265.933594 338.027344 C 268.332031 336.742188 270.695312 335.402344 273.027344 334.003906 C 275.359375 332.601562 277.65625 331.148438 279.914062 329.636719 C 282.175781 328.125 284.398438 326.558594 286.582031 324.9375 C 288.765625 323.316406 290.90625 321.644531 293.007812 319.917969 C 295.113281 318.191406 297.167969 316.414062 299.183594 314.589844 C 301.199219 312.761719 303.167969 310.886719 305.089844 308.964844 C 307.015625 307.042969 308.890625 305.074219 310.714844 303.058594 C 312.542969 301.042969 314.316406 298.984375 316.042969 296.882812 C 317.769531 294.78125 319.441406 292.640625 321.0625 290.457031 C 322.683594 288.273438 324.25 286.050781 325.761719 283.789062 C 327.273438 281.527344 328.730469 279.234375 330.128906 276.902344 C 331.527344 274.570312 332.871094 272.203125 334.152344 269.808594 C 335.4375 267.410156 336.660156 264.980469 337.824219 262.523438 C 338.992188 260.066406 340.09375 257.582031 341.136719 255.070312 C 342.179688 252.558594 343.160156 250.023438 344.078125 247.464844 C 345 244.90625 345.855469 242.324219 346.648438 239.722656 C 347.4375 237.121094 348.167969 234.503906 348.832031 231.867188 C 349.496094 229.230469 350.09375 226.578125 350.628906 223.910156 C 351.164062 221.242188 351.632812 218.566406 352.035156 215.875 C 352.4375 213.1875 352.773438 210.488281 353.046875 207.785156 C 353.316406 205.078125 353.519531 202.367188 353.660156 199.652344 C 353.796875 196.933594 353.867188 194.21875 353.875 191.496094 Z M 353.875 191.496094"/></g><path fill="#FDFFFC" d="M 106.378906 169.621094 C 106.382812 168.855469 106.4375 168.089844 106.554688 167.328125 C 106.671875 166.566406 106.84375 165.820312 107.070312 165.085938 C 107.300781 164.351562 107.582031 163.636719 107.917969 162.945312 C 108.253906 162.253906 108.640625 161.589844 109.078125 160.957031 C 109.515625 160.324219 109.996094 159.726562 110.523438 159.164062 C 111.046875 158.601562 111.613281 158.082031 112.21875 157.609375 C 112.820312 157.132812 113.457031 156.703125 114.128906 156.324219 C 114.796875 155.941406 115.488281 155.617188 116.207031 155.339844 C 116.925781 155.0625 117.660156 154.84375 118.414062 154.679688 C 119.164062 154.515625 119.925781 154.40625 120.691406 154.355469 C 121.460938 154.304688 122.226562 154.3125 122.992188 154.378906 C 123.761719 154.445312 124.519531 154.566406 125.265625 154.746094 C 126.015625 154.925781 126.746094 155.160156 127.457031 155.449219 C 128.171875 155.738281 128.855469 156.082031 129.519531 156.476562 C 130.179688 156.867188 130.808594 157.308594 131.402344 157.796875 C 131.996094 158.285156 132.550781 158.8125 133.066406 159.386719 L 187.625 220.285156 L 241.875 159.515625 C 242.542969 158.765625 243.28125 158.089844 244.085938 157.488281 C 244.890625 156.882812 245.746094 156.363281 246.652344 155.925781 C 247.558594 155.492188 248.5 155.148438 249.472656 154.898438 C 250.449219 154.648438 251.4375 154.496094 252.441406 154.441406 C 253.445312 154.382812 254.445312 154.425781 255.441406 154.570312 C 256.4375 154.710938 257.410156 154.945312 258.359375 155.28125 C 259.308594 155.613281 260.214844 156.035156 261.082031 156.546875 C 261.945312 157.058594 262.753906 157.648438 263.503906 158.320312 C 264.253906 158.988281 264.929688 159.726562 265.535156 160.53125 C 266.136719 161.335938 266.660156 162.191406 267.09375 163.097656 C 267.53125 164.003906 267.875 164.941406 268.125 165.917969 C 268.375 166.890625 268.527344 167.878906 268.585938 168.882812 C 268.640625 169.886719 268.597656 170.886719 268.457031 171.882812 C 268.316406 172.878906 268.082031 173.851562 267.75 174.800781 C 267.417969 175.75 266.996094 176.65625 266.484375 177.523438 C 265.972656 178.390625 265.382812 179.199219 264.710938 179.949219 L 199.085938 253.449219 C 198.363281 254.25 197.5625 254.96875 196.6875 255.605469 C 195.816406 256.242188 194.882812 256.78125 193.898438 257.222656 C 192.910156 257.660156 191.886719 257.996094 190.832031 258.222656 C 189.773438 258.449219 188.703125 258.5625 187.625 258.566406 C 186.550781 258.5625 185.488281 258.449219 184.4375 258.21875 C 183.386719 257.992188 182.371094 257.660156 181.390625 257.21875 C 180.410156 256.777344 179.488281 256.238281 178.621094 255.605469 C 177.753906 254.96875 176.964844 254.25 176.25 253.449219 L 110.273438 179.949219 C 109 178.53125 108.027344 176.933594 107.355469 175.152344 C 106.683594 173.371094 106.359375 171.527344 106.378906 169.621094 Z M 106.378906 169.621094"/></svg>